<svg width="37" height="40" viewBox="0 0 37 40" fill="none" xmlns="http://www.w3.org/2000/svg">
<path d="M9.52539 6.28943L12.5254 11.4856" stroke="#9A9A9D" stroke-width="1.2"/>
<path d="M17.791 5.28369L16.2381 11.0792" stroke="#9A9A9D" stroke-width="1.2"/>
<path d="M4.52246 12.9441L10.318 14.497" stroke="#9A9A9D" stroke-width="1.2"/>
<path d="M24.583 10.3676L19.3869 13.3676" stroke="#9A9A9D" stroke-width="1.2"/>
<path d="M5.53027 21.3676L10.7264 18.3676" stroke="#9A9A9D" stroke-width="1.2"/>
<path d="M26.3752 16.9389L19.5421 19.7511L16.722 14.8664C16.2207 13.9981 15.142 13.5658 14.2321 13.9757C13.1857 14.4471 12.801 15.7059 13.3629 16.6791L18.5444 25.6537C19.1125 26.6377 18.0674 27.7583 17.0501 27.256L14.9977 26.2427C13.9007 25.7011 12.5761 26.1149 11.9856 27.1837L11.9856 27.1837C11.3779 28.2837 11.777 29.6729 12.8769 30.2865L22.5829 35.701L34.4781 28.8333L31.4796 19.3396C30.803 17.1972 28.4437 16.0876 26.3752 16.9389Z" stroke="#0075C9" stroke-width="1.2" stroke-miterlimit="10" stroke-linecap="square"/>
</svg>
