<svg width="16" height="16" viewBox="0 0 16 16" fill="none" xmlns="http://www.w3.org/2000/svg">
<ellipse cx="4.66536" cy="11.3333" rx="1.33333" ry="1.33333" stroke="#76B5E2" stroke-width="1.2" stroke-linecap="round"/>
<circle cx="11.3333" cy="11.3333" r="1.33333" stroke="#76B5E2" stroke-width="1.2" stroke-linecap="round"/>
<path d="M3.33333 11.9333C3.6647 11.9333 3.93333 11.6646 3.93333 11.3333C3.93333 11.0019 3.6647 10.7333 3.33333 10.7333V11.9333ZM2 11.3333H1.4V11.9333H2V11.3333ZM8.66667 3.33325H9.26667V2.73325H8.66667V3.33325ZM8.06667 11.3333C8.06667 11.6646 8.3353 11.9333 8.66667 11.9333C8.99804 11.9333 9.26667 11.6646 9.26667 11.3333H8.06667ZM6 10.7333C5.66863 10.7333 5.4 11.0019 5.4 11.3333C5.4 11.6646 5.66863 11.9333 6 11.9333V10.7333ZM10 11.9333C10.3314 11.9333 10.6 11.6646 10.6 11.3333C10.6 11.0019 10.3314 10.7333 10 10.7333V11.9333ZM12.6667 10.7333C12.3353 10.7333 12.0667 11.0019 12.0667 11.3333C12.0667 11.6646 12.3353 11.9333 12.6667 11.9333V10.7333ZM14 11.3333V11.9333H14.6V11.3333H14ZM14 7.33325H14.6V6.73325H14V7.33325ZM8.66667 6.73325C8.3353 6.73325 8.06667 7.00188 8.06667 7.33325C8.06667 7.66462 8.3353 7.93325 8.66667 7.93325V6.73325ZM8.66667 3.39992C8.3353 3.39992 8.06667 3.66855 8.06667 3.99992C8.06667 4.33129 8.3353 4.59992 8.66667 4.59992V3.39992ZM12 3.99992L12.5145 3.69122L12.3397 3.39992H12V3.99992ZM13.4855 7.64195C13.656 7.9261 14.0245 8.01824 14.3087 7.84775C14.5928 7.67726 14.685 7.3087 14.5145 7.02455L13.4855 7.64195ZM3.33333 10.7333H2V11.9333H3.33333V10.7333ZM2.6 11.3333V3.99992H1.4V11.3333H2.6ZM2.6 3.99992C2.6 3.9631 2.62985 3.93325 2.66667 3.93325V2.73325C1.96711 2.73325 1.4 3.30036 1.4 3.99992H2.6ZM2.66667 3.93325H8.66667V2.73325H2.66667V3.93325ZM8.06667 3.33325V11.3333H9.26667V3.33325H8.06667ZM6 11.9333H10V10.7333H6V11.9333ZM12.6667 11.9333H14V10.7333H12.6667V11.9333ZM14.6 11.3333V7.33325H13.4V11.3333H14.6ZM14 6.73325H8.66667V7.93325H14V6.73325ZM8.66667 4.59992H12V3.39992H8.66667V4.59992ZM11.4855 4.30862L13.4855 7.64195L14.5145 7.02455L12.5145 3.69122L11.4855 4.30862Z" fill="#76B5E2"/>
<path d="M2 4.86572V3.33325H4.22143" stroke="#76B5E2" stroke-width="1.2" stroke-linecap="round"/>
</svg>
