<svg width="32" height="32" viewBox="0 0 32 32" fill="none" xmlns="http://www.w3.org/2000/svg">
<path fill-rule="evenodd" clip-rule="evenodd" d="M31 16C31 24.2843 24.2843 31 16 31C12.9985 31 10.2029 30.1184 7.858 28.6001L7.13585 29.3222C9.67333 31.0139 12.7215 32 16 32C24.8366 32 32 24.8366 32 16C32 12.7215 31.0139 9.67333 29.3222 7.13585L28.6001 7.858C30.1184 10.2029 31 12.9985 31 16ZM3.58279 26.091L4.29389 25.3799C2.23293 22.8112 1 19.5496 1 16C1 7.71573 7.71573 1 16 1C19.5496 1 22.8112 2.23293 25.3799 4.29389L26.091 3.58279C23.338 1.34279 19.8258 0 16 0C7.16344 0 0 7.16344 0 16C0 19.8258 1.34279 23.338 3.58279 26.091Z" fill="#FEC533"/>
<rect x="7.78906" y="11.9414" width="9" height="5.69956" fill="#FEC533"/>
<rect x="7.17578" y="8.64062" width="10.2266" height="2.29562" fill="#FEC533"/>
<path d="M7.78906 11.4375H16.7891" stroke="white"/>
<ellipse cx="15.4915" cy="22.0247" rx="1.33333" ry="1.33333" stroke="#02020A" stroke-width="1.2" stroke-linecap="round"/>
<circle cx="22.1576" cy="22.0247" r="1.33333" stroke="#02020A" stroke-width="1.2" stroke-linecap="round"/>
<path d="M14.1576 22.6234C14.4889 22.6234 14.7576 22.3548 14.7576 22.0234C14.7576 21.6921 14.4889 21.4234 14.1576 21.4234V22.6234ZM12.8242 22.0234H12.2242V22.6234H12.8242V22.0234ZM19.4909 14.0234H20.0909V13.4234H19.4909V14.0234ZM18.8909 22.0234C18.8909 22.3548 19.1595 22.6234 19.4909 22.6234C19.8223 22.6234 20.0909 22.3548 20.0909 22.0234H18.8909ZM16.8242 21.4247C16.4928 21.4247 16.2242 21.6934 16.2242 22.0247C16.2242 22.3561 16.4928 22.6247 16.8242 22.6247V21.4247ZM20.8242 22.6247C21.1556 22.6247 21.4242 22.3561 21.4242 22.0247C21.4242 21.6934 21.1556 21.4247 20.8242 21.4247V22.6247ZM23.4902 21.4234C23.1589 21.4234 22.8902 21.6921 22.8902 22.0234C22.8902 22.3548 23.1589 22.6234 23.4902 22.6234V21.4234ZM24.8236 22.0234V22.6234H25.4236V22.0234H24.8236ZM24.8236 18.0234H25.4236V17.4234H24.8236V18.0234ZM19.4902 17.4234C19.1589 17.4234 18.8902 17.6921 18.8902 18.0234C18.8902 18.3548 19.1589 18.6234 19.4902 18.6234V17.4234ZM19.4902 14.0914C19.1589 14.0914 18.8902 14.36 18.8902 14.6914C18.8902 15.0228 19.1589 15.2914 19.4902 15.2914V14.0914ZM22.8236 14.6914L23.3381 14.3827L23.1633 14.0914H22.8236V14.6914ZM24.3091 18.3334C24.4796 18.6176 24.8481 18.7097 25.1323 18.5392C25.4164 18.3687 25.5086 18.0002 25.3381 17.716L24.3091 18.3334ZM14.1576 21.4234H12.8242V22.6234H14.1576V21.4234ZM13.4242 22.0234V14.6901H12.2242V22.0234H13.4242ZM13.4242 14.6901C13.4242 14.6533 13.4541 14.6234 13.4909 14.6234V13.4234C12.7913 13.4234 12.2242 13.9905 12.2242 14.6901H13.4242ZM13.4909 14.6234H19.4909V13.4234H13.4909V14.6234ZM18.8909 14.0234V22.0234H20.0909V14.0234H18.8909ZM16.8242 22.6247H20.8242V21.4247H16.8242V22.6247ZM23.4902 22.6234H24.8236V21.4234H23.4902V22.6234ZM25.4236 22.0234V18.0234H24.2236V22.0234H25.4236ZM24.8236 17.4234H19.4902V18.6234H24.8236V17.4234ZM19.4902 15.2914H22.8236V14.0914H19.4902V15.2914ZM22.3091 15.0001L24.3091 18.3334L25.3381 17.716L23.3381 14.3827L22.3091 15.0001Z" fill="#02020A"/>
<path d="M14.3496 14.0234H12.8242V15.5147" stroke="#02020A" stroke-width="1.2" stroke-linecap="round"/>
</svg>
