<svg width="32" height="32" viewBox="0 0 32 32" fill="none" xmlns="http://www.w3.org/2000/svg">
<path fill-rule="evenodd" clip-rule="evenodd" d="M31 16C31 24.2843 24.2843 31 16 31C12.9985 31 10.2029 30.1184 7.858 28.6001L7.13585 29.3222C9.67333 31.0139 12.7215 32 16 32C24.8366 32 32 24.8366 32 16C32 12.7215 31.0139 9.67333 29.3222 7.13585L28.6001 7.858C30.1184 10.2029 31 12.9985 31 16ZM3.58279 26.091L4.29389 25.3799C2.23293 22.8112 1 19.5496 1 16C1 7.71573 7.71573 1 16 1C19.5496 1 22.8112 2.23293 25.3799 4.29389L26.091 3.58279C23.338 1.34279 19.8258 0 16 0C7.16344 0 0 7.16344 0 16C0 19.8258 1.34279 23.338 3.58279 26.091Z" fill="#FEC533"/>
<rect x="7.78906" y="11.9414" width="9" height="5.69956" fill="#FEC533"/>
<rect x="7.17578" y="8.64062" width="10.2266" height="2.29562" fill="#FEC533"/>
<path d="M7.78906 11.4375H16.7891" stroke="white"/>
<circle cx="18.5" cy="17.875" r="1.875" stroke="#02020A" stroke-width="1.2" stroke-linecap="round" stroke-linejoin="round"/>
<path d="M22.0356 21.4104L22.4447 21.8494C22.4498 21.8446 22.4549 21.8397 22.4599 21.8347L22.0356 21.4104ZM18.4588 24.7433L18.0447 25.1775L18.454 25.5679L18.8678 25.1823L18.4588 24.7433ZM14.9644 21.4104L14.5401 21.8347C14.5434 21.838 14.5468 21.8414 14.5503 21.8446L14.9644 21.4104ZM21.6266 20.9715L18.0497 24.3043L18.8678 25.1823L22.4447 21.8494L21.6266 20.9715ZM18.8729 24.3091L15.3785 20.9763L14.5503 21.8446L18.0447 25.1775L18.8729 24.3091ZM15.3886 20.9862C13.6704 19.2679 13.6705 16.482 15.3888 14.7637L14.5402 13.9152C12.3533 16.1021 12.3532 19.6477 14.5401 21.8347L15.3886 20.9862ZM15.3888 14.7637C17.1071 13.0454 19.8929 13.0454 21.6112 14.7637L22.4598 13.9152C20.2728 11.7283 16.7272 11.7283 14.5402 13.9152L15.3888 14.7637ZM21.6112 14.7637C23.3295 16.482 23.3296 19.2679 21.6114 20.9862L22.4599 21.8347C24.6468 19.6477 24.6467 16.1021 22.4598 13.9152L21.6112 14.7637Z" fill="#02020A"/>
</svg>
