<svg width="24" height="25" viewBox="0 0 24 25" fill="none" xmlns="http://www.w3.org/2000/svg">
<path d="M7 4.5V3.9H7.6V4.5H7ZM3 4.5H2.4V3.9H3V4.5ZM3 13.5V14.1H2.4V13.5H3ZM15 13.5H14.4V12.9H15V13.5ZM20 11.5L20.5883 11.3823L20.6 11.4406V11.5H20ZM19 6.5L19.5842 6.36306L19.5864 6.37266L19.5883 6.38233L19 6.5ZM17 4.5L17.0509 5.09784L17.0255 5.1H17V4.5ZM7.6 7.5V8.1H6.4V7.5H7.6ZM7.93416 5.32461L7.52092 4.8896L7.93416 5.32461ZM6.4 13.5V4.5H7.6V13.5H6.4ZM3 12.9H7V14.1H3V12.9ZM7 12.9C9.54051 12.9 11.6 14.9595 11.6 17.5H10.4C10.4 15.6222 8.87777 14.1 7 14.1V12.9ZM11.6 17.5V18.5H10.4V17.5H11.6ZM11.6 18.5C11.6 19.2732 12.2268 19.9 13 19.9V21.1C11.5641 21.1 10.4 19.9359 10.4 18.5H11.6ZM13 19.9C13.7732 19.9 14.4 19.2732 14.4 18.5H15.6C15.6 19.9359 14.4359 21.1 13 21.1V19.9ZM14.4 18.5V13.5H15.6V18.5H14.4ZM15 12.9H18V14.1H15V12.9ZM18 12.9C18.7732 12.9 19.4 12.2732 19.4 11.5H20.6C20.6 12.9359 19.4359 14.1 18 14.1V12.9ZM19.4117 11.6177L18.4117 6.61767L19.5883 6.38233L20.5883 11.3823L19.4117 11.6177ZM18.4158 6.63694C18.147 5.49032 17.4931 5.06022 17.0509 5.09784L16.9491 3.90216C18.2853 3.78849 19.2621 4.98916 19.5842 6.36306L18.4158 6.63694ZM17 5.1H10V3.9H17V5.1ZM3.6 4.5V13.5H2.4V4.5H3.6ZM7 5.1H3V3.9H7V5.1ZM10 5.1C9.35928 5.1 8.7783 5.35028 8.3474 5.75962L7.52092 4.8896C8.16593 4.27688 9.03959 3.9 10 3.9V5.1ZM8.3474 5.75962C7.88627 6.19766 7.6 6.8149 7.6 7.5H6.4C6.4 6.47251 6.83124 5.54476 7.52092 4.8896L8.3474 5.75962Z" fill="#808084"/>
</svg>
