<svg width="14" height="13" viewBox="0 0 14 13" fill="none" xmlns="http://www.w3.org/2000/svg">
<path d="M13 3.94307C12.999 3.23557 12.7646 2.54816 12.3331 1.98746C11.9016 1.42676 11.2972 1.02409 10.6136 0.841901C9.92991 0.659711 9.20526 0.708179 8.55197 0.979791C7.89868 1.2514 7.35326 1.73098 7.0003 2.34415C6.76911 1.93983 6.45275 1.59063 6.07316 1.32075C5.69358 1.05088 5.25984 0.866778 4.80201 0.781221C4.34419 0.695665 3.87324 0.710696 3.42181 0.825274C2.97037 0.939852 2.54926 1.15124 2.18765 1.44477C1.82604 1.73831 1.5326 2.10697 1.32766 2.5252C1.12272 2.94344 1.01119 3.40124 1.0008 3.86687C0.990407 4.33251 1.0814 4.79483 1.26748 5.22179C1.45355 5.64875 1.73026 6.03014 2.07841 6.33952L7.0003 11.2743L11.9222 6.33952C12.2612 6.03906 12.5325 5.67008 12.7183 5.25697C12.9041 4.84387 13.0001 4.39603 13 3.94307Z" stroke="#0075C9" stroke-width="1.2" stroke-miterlimit="10" stroke-linecap="square"/>
</svg>
