<svg>	
	<symbol id="map_pin" width="18" height="18" viewBox="0 0 18 18" fill="none" xmlns="http://www.w3.org/2000/svg"> <g clip-path="url(#clip0_609_16302)"> <path d="M15.1875 6.75C15.1875 11.8125 9 17.4375 9 17.4375C9 17.4375 2.8125 11.8125 2.8125 6.75C2.8125 5.10897 3.4644 3.53516 4.62478 2.37478C5.78516 1.2144 7.35897 0.5625 9 0.5625C10.641 0.5625 12.2148 1.2144 13.3752 2.37478C14.5356 3.53516 15.1875 5.10897 15.1875 6.75V6.75Z" stroke="currentColor" stroke-width="1.2" stroke-linecap="round" stroke-linejoin="round"/> <path d="M9 9.5625C10.5533 9.5625 11.8125 8.3033 11.8125 6.75C11.8125 5.1967 10.5533 3.9375 9 3.9375C7.4467 3.9375 6.1875 5.1967 6.1875 6.75C6.1875 8.3033 7.4467 9.5625 9 9.5625Z" stroke="currentColor" stroke-width="1.2" stroke-linecap="round" stroke-linejoin="round"/> </g> <defs> <clipPath id="clip0_609_16302"> <rect width="18" height="18" fill="white"/> </clipPath> </defs> </symbol>
	<symbol id="chevron" width="10" height="6" viewBox="0 0 10 6" fill="none" xmlns="http://www.w3.org/2000/svg"><path d="M1 1L5 5L9 1" stroke="currentColor" stroke-width="1.2"/></symbol>
	<symbol id="account_avatar" width="24" height="24" viewBox="0 0 24 24" fill="none" xmlns="http://www.w3.org/2000/svg">
		<path d="M11.9998 11.9996C14.485 11.9996 16.4996 9.98498 16.4996 7.49981C16.4996 5.01463 14.485 3 11.9998 3C9.51463 3 7.5 5.01463 7.5 7.49981C7.5 9.98498 9.51463 11.9996 11.9998 11.9996Z" stroke="#02020A" stroke-width="1.2" stroke-miterlimit="10" stroke-linecap="square"/>
		<path d="M20.9992 20.9997V19.5261C20.9992 18.4611 20.4405 17.4816 19.524 16.9394C18.0653 16.0762 15.5365 15 11.9996 15C8.41702 15 5.90462 16.0695 4.46094 16.9312C3.55198 17.4741 3 18.4506 3 19.5096V20.9997H20.9992Z" stroke="#02020A" stroke-width="1.2" stroke-miterlimit="10" stroke-linecap="square"/>
	</symbol>
</svg>