<svg>	
	<symbol id="map_pin" width="18" height="18" viewBox="0 0 18 18" fill="none" xmlns="http://www.w3.org/2000/svg"> <g clip-path="url(#clip0_609_16302)"> <path d="M15.1875 6.75C15.1875 11.8125 9 17.4375 9 17.4375C9 17.4375 2.8125 11.8125 2.8125 6.75C2.8125 5.10897 3.4644 3.53516 4.62478 2.37478C5.78516 1.2144 7.35897 0.5625 9 0.5625C10.641 0.5625 12.2148 1.2144 13.3752 2.37478C14.5356 3.53516 15.1875 5.10897 15.1875 6.75V6.75Z" stroke="currentColor" stroke-width="1.2" stroke-linecap="round" stroke-linejoin="round"/> <path d="M9 9.5625C10.5533 9.5625 11.8125 8.3033 11.8125 6.75C11.8125 5.1967 10.5533 3.9375 9 3.9375C7.4467 3.9375 6.1875 5.1967 6.1875 6.75C6.1875 8.3033 7.4467 9.5625 9 9.5625Z" stroke="currentColor" stroke-width="1.2" stroke-linecap="round" stroke-linejoin="round"/> </g> <defs> <clipPath id="clip0_609_16302"> <rect width="18" height="18" fill="white"/> </clipPath> </defs> </symbol>
	<symbol id="chevron" width="10" height="6" viewBox="0 0 10 6" fill="none" xmlns="http://www.w3.org/2000/svg"><path d="M1 1L5 5L9 1" stroke="currentColor" stroke-width="1.2"/></symbol>
	<symbol id="account_avatar" width="24" height="24" viewBox="0 0 24 24" fill="none" xmlns="http://www.w3.org/2000/svg">
		<path d="M11.9998 11.9996C14.485 11.9996 16.4996 9.98498 16.4996 7.49981C16.4996 5.01463 14.485 3 11.9998 3C9.51463 3 7.5 5.01463 7.5 7.49981C7.5 9.98498 9.51463 11.9996 11.9998 11.9996Z" stroke="currentColor" stroke-width="1.2" stroke-miterlimit="10" stroke-linecap="square"/>
		<path d="M20.9992 20.9997V19.5261C20.9992 18.4611 20.4405 17.4816 19.524 16.9394C18.0653 16.0762 15.5365 15 11.9996 15C8.41702 15 5.90462 16.0695 4.46094 16.9312C3.55198 17.4741 3 18.4506 3 19.5096V20.9997H20.9992Z" stroke="currentColor" stroke-width="1.2" stroke-miterlimit="10" stroke-linecap="square"/>
	</symbol>
	<symbol id="search" width="24" height="24" viewBox="0 0 24 24" fill="none" xmlns="http://www.w3.org/2000/svg"> <circle cx="10.0436" cy="10.0436" r="6.54362" stroke="currentColor"/> <path d="M14.5715 14.5717L21.0001 21.0002" stroke="currentColor" stroke-width="1.2"/> </symbol>
	<symbol id="favorite" width="24" height="24" viewBox="0 0 24 24" fill="none" xmlns="http://www.w3.org/2000/svg">
		<path d="M21 8.9146C20.9985 7.85335 20.6469 6.82225 19.9997 5.98119C19.3524 5.14014 18.4458 4.53614 17.4203 4.26285C16.3949 3.98957 15.3079 4.06227 14.328 4.46969C13.348 4.8771 12.5299 5.59647 12.0005 6.51622C11.6537 5.90975 11.1791 5.38595 10.6097 4.98113C10.0404 4.57631 9.38976 4.30017 8.70302 4.17183C8.01629 4.0435 7.30986 4.06604 6.63271 4.23791C5.95556 4.40978 5.32388 4.72685 4.78148 5.16716C4.23907 5.60746 3.7989 6.16045 3.49149 6.78781C3.18409 7.41516 3.01679 8.10186 3.0012 8.80031C2.98561 9.49876 3.12211 10.1922 3.40122 10.8327C3.68033 11.4731 4.09538 12.0452 4.61761 12.5093L12.0005 19.9114L19.3833 12.5093C19.8918 12.0586 20.2988 11.5051 20.5775 10.8855C20.8562 10.2658 21.0002 9.59405 21 8.9146Z" stroke="currentColor" stroke-width="1.2" stroke-miterlimit="10" stroke-linecap="square"/>
	</symbol>
	<symbol id="compare" width="24" height="24" viewBox="0 0 24 24" fill="none" xmlns="http://www.w3.org/2000/svg">
		<rect x="4" y="7.56641" width="3" height="11.4598" stroke="currentColor" stroke-width="1.2"/>
		<rect x="10" y="4" width="3" height="15.0267" stroke="currentColor" stroke-width="1.2"/>
		<rect x="16" y="9.75781" width="3" height="9.26741" stroke="currentColor" stroke-width="1.2"/>
	</symbol>
	<symbol id="cart" width="31" height="30" viewBox="0 0 31 30" fill="none" xmlns="http://www.w3.org/2000/svg">
		<path d="M3 8H6.33333V21.3333H18L21.3333 13H6.33333" stroke="currentColor" stroke-width="1.2" stroke-linecap="square"/>
		<path d="M8.36797 25.2672C8.36797 25.9852 7.78594 26.5672 7.06797 26.5672C6.35 26.5672 5.76797 25.9852 5.76797 25.2672C5.76797 24.5492 6.35 23.9672 7.06797 23.9672C7.78594 23.9672 8.36797 24.5492 8.36797 25.2672Z" stroke="currentColor" stroke-width="1.2" stroke-linecap="square"/>
		<path d="M19.8992 25.2672C19.8992 25.9852 19.3172 26.5672 18.5992 26.5672C17.8812 26.5672 17.2992 25.9852 17.2992 25.2672C17.2992 24.5492 17.8812 23.9672 18.5992 23.9672C19.3172 23.9672 19.8992 24.5492 19.8992 25.2672Z" stroke="currentColor" stroke-width="1.2" stroke-linecap="square"/>
	</symbol>
	<symbol id="arrow_right_top" width="14" height="14" viewBox="0 0 14 14" fill="none" xmlns="http://www.w3.org/2000/svg">
		<path d="M11 2.9961L1.09167 12.9044" stroke="currentColor" stroke-width="1.2"/>
		<path d="M4.37092 3.03533H10.9572V9.62161" stroke="currentColor" stroke-width="1.2"/>
	</symbol>
	<symbol id="phone" width="24" height="24" viewBox="0 0 24 24" fill="none" xmlns="http://www.w3.org/2000/svg">
		<path d="M5 4H9L11 9L8.5 10.5C9.57096 12.6715 11.3285 14.429 13.5 15.5L15 13L20 15V19C20 20.1046 19.1046 21 18 21C9.92765 20.5094 3.49056 14.0724 3 6C3 4.89543 3.89543 4 5 4" stroke="currentColor" stroke-width="1.2" stroke-linecap="round" stroke-linejoin="round"/>
	</symbol>
	<symbol id="menu-btn" width="24" height="16" viewBox="0 0 24 16" fill="none" xmlns="http://www.w3.org/2000/svg">
		<path d="M0.890381 8H23.1098" stroke="currentColor" stroke-width="1.2" stroke-miterlimit="10" stroke-linecap="square"/>
		<path d="M0.890381 1H23.1098" stroke="currentColor" stroke-width="1.2" stroke-miterlimit="10" stroke-linecap="square"/>
		<path d="M0.890381 15H12.0001" stroke="currentColor" stroke-width="1.2" stroke-miterlimit="10" stroke-linecap="square"/>
	</symbol>
	<symbol id="catalog_section-icon" width="51" height="51" viewBox="0 0 51 51" fill="none" xmlns="http://www.w3.org/2000/svg">
		<path fill-rule="evenodd" clip-rule="evenodd" d="M50 25.5C50 39.031 39.031 50 25.5 50C20.5514 50 15.9455 48.5329 12.0935 46.0098L11.3718 46.7316C15.4161 49.4282 20.2745 51 25.5 51C39.5833 51 51 39.5833 51 25.5C51 20.2745 49.4282 15.4161 46.7316 11.3718L46.0098 12.0935C48.5329 15.9455 50 20.5514 50 25.5ZM5.70933 41.5817L6.42034 40.8707C3.02986 36.6674 1 31.3207 1 25.5C1 11.969 11.969 1 25.5 1C31.3207 1 36.6674 3.02986 40.8707 6.42034L41.5817 5.70933C37.1942 2.13978 31.597 0 25.5 0C11.4167 0 0 11.4167 0 25.5C0 31.597 2.13978 37.1942 5.70933 41.5817Z" fill="#FEC533"/>
		<path d="M24.3281 23.9922L33.8179 21.9751L35.5227 29.9952L26.0329 32.0123L24.3281 23.9922Z" fill="#FEC533"/>
		<path d="M24.6959 30.7555L23.5439 25.336L33.239 23.2752L34.7904 30.5741L34.9132 31.1517" stroke="#02020A" stroke-width="1.2"/>
		<path d="M32.1639 23.5042L30.5611 15.9636L23.0205 17.5664L24.1938 23.0865" stroke="#02020A" stroke-width="1.2"/>
		<rect x="25.5322" y="17.0313" width="2.56967" height="2.93677" transform="rotate(-12 25.5322 17.0313)" stroke="#02020A" stroke-width="1.2"/>
		<rect x="27.1338" y="24.5723" width="2.56967" height="2.93677" transform="rotate(-12 27.1338 24.5723)" stroke="#02020A" stroke-width="1.2"/>
		<rect x="19.6055" y="21.8711" width="1.37144" height="11.1986" transform="rotate(-12 19.6055 21.8711)" fill="#02020A"/>
		<rect x="20.9336" y="21.5859" width="1.58466" height="4.11431" transform="rotate(78 20.9336 21.5859)" fill="#02020A"/>
		<rect x="24.6094" y="34.332" width="1.37144" height="11.8118" transform="rotate(-102 24.6094 34.332)" fill="#02020A"/>
		<path fill-rule="evenodd" clip-rule="evenodd" d="M23.977 36.3101C25.1043 35.7357 25.5526 34.3561 24.9782 33.2287C24.4037 32.1013 23.0241 31.6531 21.8968 32.2275C20.7694 32.8019 20.3211 34.1815 20.8956 35.3089C21.47 36.4363 22.8496 36.8845 23.977 36.3101ZM23.4364 35.2487C23.9671 34.9783 24.1782 34.3288 23.9077 33.7981C23.6373 33.2674 22.9878 33.0563 22.4571 33.3268C21.9263 33.5972 21.7153 34.2467 21.9857 34.7774C22.2562 35.3081 22.9057 35.5192 23.4364 35.2487Z" fill="#02020A"/>
		<path d="M24.4436 33.5011C24.8676 34.3332 24.5367 35.3515 23.7046 35.7755L24.2494 36.8447C25.672 36.1198 26.2376 34.3789 25.5128 32.9563L24.4436 33.5011ZM22.1692 32.7621C23.0013 32.3381 24.0196 32.669 24.4436 33.5011L25.5128 32.9563C24.7879 31.5337 23.047 30.968 21.6244 31.6929L22.1692 32.7621ZM21.4302 35.0365C21.0062 34.2044 21.337 33.1861 22.1692 32.7621L21.6244 31.6929C20.2017 32.4177 19.6361 34.1586 20.361 35.5813L21.4302 35.0365ZM23.7046 35.7755C22.8724 36.1995 21.8542 35.8686 21.4302 35.0365L20.361 35.5813C21.0858 37.0039 22.8267 37.5696 24.2494 36.8447L23.7046 35.7755ZM23.3731 34.0705C23.4931 34.306 23.3995 34.5942 23.164 34.7141L23.7088 35.7834C24.5348 35.3625 24.8632 34.3517 24.4423 33.5257L23.3731 34.0705ZM22.7295 33.8614C22.965 33.7414 23.2531 33.835 23.3731 34.0705L24.4423 33.5257C24.0215 32.6997 23.0107 32.3713 22.1847 32.7922L22.7295 33.8614ZM22.5203 34.505C22.4004 34.2695 22.494 33.9813 22.7295 33.8614L22.1847 32.7922C21.3587 33.213 21.0303 34.2238 21.4511 35.0498L22.5203 34.505ZM23.164 34.7141C22.9285 34.8341 22.6403 34.7405 22.5203 34.505L21.4511 35.0498C21.872 35.8758 22.8828 36.2042 23.7088 35.7834L23.164 34.7141Z" fill="#02020A"/>
	</symbol>
	<symbol id="youtube" width="24" height="24" viewBox="0 0 24 24" fill="none" xmlns="http://www.w3.org/2000/svg">
		<path fill-rule="evenodd" clip-rule="evenodd" d="M0 12C0 5.37258 5.37258 0 12 0C18.6274 0 24 5.37258 24 12C24 18.6274 18.6274 24 12 24C5.37258 24 0 18.6274 0 12Z" fill="#FF0000"/>
		<path fill-rule="evenodd" clip-rule="evenodd" d="M18.1325 8.83661C17.9853 8.27111 17.5516 7.8258 17.0008 7.67466C16.0027 7.4 12 7.4 12 7.4C12 7.4 7.99735 7.4 6.99916 7.67466C6.4484 7.8258 6.01465 8.27111 5.86745 8.83661C5.60004 9.86152 5.60004 12 5.60004 12C5.60004 12 5.60004 14.1384 5.86745 15.1634C6.01465 15.7289 6.4484 16.1742 6.99916 16.3254C7.99735 16.6 12 16.6 12 16.6C12 16.6 16.0027 16.6 17.0008 16.3254C17.5516 16.1742 17.9853 15.7289 18.1325 15.1634C18.4 14.1384 18.4 12 18.4 12C18.4 12 18.4 9.86152 18.1325 8.83661Z" fill="white"/>
		<path fill-rule="evenodd" clip-rule="evenodd" d="M10.8 14V10L14 12.0001L10.8 14Z" fill="#FF0000"/>
	</symbol>
	<symbol id="warranties-1" width="100%" height="100%" viewBox="0 0 130 130" fill="none" xmlns="http://www.w3.org/2000/svg">
		<path d="M79 47.457H50.8672V85.8824H75.2407H79V70.3989V47.457Z" fill="#FEC533"/>
		<path d="M77.1563 61.1123V45.2715H49.0234V83.6968H67.9347" stroke="#02020A"/>
		<path d="M73.1563 44.8863V41.2715H45.0234V79.6968H48.8442" stroke="#02020A"/>
		<path d="M54.4844 52.918H74.1488" stroke="#02020A" stroke-width="1.2"/>
		<path d="M54.4844 57.2891H70.8714" stroke="#02020A" stroke-width="1.2"/>
		<path d="M54.4844 61.6562H68.1403" stroke="#02020A" stroke-width="1.2"/>
		<circle cx="59.0382" cy="74.839" r="4.46009" stroke="#02020A" stroke-width="1.2"/>
		<path d="M83.4592 87.8602L80.6673 80.9294L81.3365 76.1953H76.6618L77.331 80.9294L74.5391 87.8602" stroke="#02020A"/>
		<path d="M76.5995 76.3008L77.2224 80.7496L74.375 87.7789H83.3618L80.6924 80.7496L81.6712 76.3008H76.5995Z" fill="#02020A"/>
		<path d="M70.6466 88.7168C70.7175 88.2247 71.1392 87.8594 71.6364 87.8594H86.3602C86.8574 87.8594 87.2791 88.2247 87.35 88.7168L87.7538 91.5199C87.8407 92.1227 87.3731 92.6625 86.7641 92.6625H71.2325C70.6235 92.6625 70.1559 92.1227 70.2428 91.5199L70.6466 88.7168Z" fill="#02020A" stroke="#02020A"/>
		<circle cx="79.0011" cy="72.7648" r="3.43084" fill="#02020A" stroke="#02020A"/>
		<path fill-rule="evenodd" clip-rule="evenodd" d="M129 65C129 100.346 100.346 129 65 129C51.9593 129 39.8295 125.1 29.7137 118.402L28.9922 119.123C39.3002 125.995 51.6824 130 65 130C100.899 130 130 100.899 130 65C130 51.6824 125.995 39.3002 119.123 28.9922L118.402 29.7137C125.1 39.8295 129 51.9593 129 65ZM14.5572 105.997L15.2681 105.287C6.34597 94.2862 1 80.2674 1 65C1 29.6538 29.6538 1 65 1C80.2674 1 94.2862 6.34597 105.287 15.2681L105.997 14.5572C94.813 5.45594 80.5437 0 65 0C29.1015 0 0 29.1015 0 65C0 80.5437 5.45594 94.813 14.5572 105.997Z" fill="#FEC533"/>
	</symbol>
	<symbol id="warranties-2" width="100%" height="100%" viewBox="0 0 130 130" fill="none" xmlns="http://www.w3.org/2000/svg">
		<path fill-rule="evenodd" clip-rule="evenodd" d="M129 65C129 100.346 100.346 129 65 129C51.9593 129 39.8295 125.1 29.7137 118.402L28.9922 119.123C39.3002 125.995 51.6824 130 65 130C100.899 130 130 100.899 130 65C130 51.6824 125.995 39.3002 119.123 28.9922L118.402 29.7137C125.1 39.8295 129 51.9593 129 65ZM14.5572 105.997L15.2681 105.287C6.34597 94.2862 1 80.2674 1 65C1 29.6538 29.6538 1 65 1C80.2674 1 94.2862 6.34597 105.287 15.2681L105.997 14.5572C94.813 5.45594 80.5437 0 65 0C29.1015 0 0 29.1015 0 65C0 80.5437 5.45594 94.813 14.5572 105.997Z" fill="#FEC533"/>
		<path d="M62.0156 61.1563L86.2053 56.0146L90.5507 76.4581L66.361 81.5997L62.0156 61.1563Z" fill="#FEC533"/>
		<path d="M62.9754 78.3926L60.0391 64.5781L84.7518 59.3253L88.7065 77.9303L89.0194 79.4025" stroke="#02020A" stroke-width="1.2"/>
		<path d="M82.0058 59.9109L77.9203 40.6898L58.6992 44.7754L61.6901 58.8462" stroke="#02020A" stroke-width="1.2"/>
		<rect x="65.1055" y="43.4121" width="6.55015" height="7.48589" transform="rotate(-12 65.1055 43.4121)" stroke="#02020A" stroke-width="1.2"/>
		<rect x="69.1914" y="62.6328" width="6.55015" height="7.48589" transform="rotate(-12 69.1914 62.6328)" stroke="#02020A" stroke-width="1.2"/>
		<rect x="49.9805" y="55.75" width="3.49583" height="28.5453" transform="rotate(-12 49.9805 55.75)" fill="#02020A"/>
		<rect x="53.375" y="55.0234" width="4.03932" height="10.4875" transform="rotate(78 53.375 55.0234)" fill="#02020A"/>
		<rect x="62.7422" y="87.5137" width="3.49583" height="30.1085" transform="rotate(-102 62.7422 87.5137)" fill="#02020A"/>
		<path fill-rule="evenodd" clip-rule="evenodd" d="M61.1347 92.5523C64.0084 91.0881 65.151 87.5715 63.6868 84.6977C62.2225 81.824 58.7059 80.6814 55.8322 82.1457C52.9585 83.6099 51.8159 87.1265 53.2801 90.0002C54.7444 92.8739 58.261 94.0165 61.1347 92.5523ZM59.7545 89.8444C61.1073 89.1551 61.6452 87.4996 60.9559 86.1467C60.2666 84.7938 58.6111 84.2559 57.2582 84.9452C55.9053 85.6346 55.3674 87.2901 56.0567 88.643C56.7461 89.9958 58.4016 90.5337 59.7545 89.8444Z" fill="#02020A"/>
		<path d="M63.1522 84.9701C64.4659 87.5486 63.4407 90.7039 60.8623 92.0177L61.4071 93.0869C64.576 91.4722 65.836 87.5943 64.2214 84.4254L63.1522 84.9701ZM56.1046 82.6803C58.6831 81.3665 61.8384 82.3917 63.1522 84.9701L64.2214 84.4254C62.6067 81.2564 58.7288 79.9964 55.5598 81.611L56.1046 82.6803ZM53.8147 89.7278C52.5009 87.1493 53.5262 83.994 56.1046 82.6803L55.5598 81.611C52.3909 83.2257 51.1309 87.1036 52.7455 90.2726L53.8147 89.7278ZM60.8623 92.0177C58.2838 93.3315 55.1285 92.3063 53.8147 89.7278L52.7455 90.2726C54.3602 93.4416 58.2381 94.7016 61.4071 93.0869L60.8623 92.0177ZM60.4213 86.4191C60.9602 87.4767 60.5397 88.7709 59.4821 89.3098L60.0269 90.379C61.675 89.5393 62.3303 87.5224 61.4905 85.8743L60.4213 86.4191ZM57.5306 85.4798C58.5882 84.9409 59.8824 85.3615 60.4213 86.4191L61.4905 85.8743C60.6508 84.2262 58.6339 83.5709 56.9858 84.4106L57.5306 85.4798ZM56.5913 88.3706C56.0524 87.3129 56.473 86.0187 57.5306 85.4798L56.9858 84.4106C55.3377 85.2504 54.6824 87.2672 55.5221 88.9154L56.5913 88.3706ZM59.4821 89.3098C58.4244 89.8487 57.1302 89.4282 56.5913 88.3706L55.5221 88.9154C56.3619 90.5635 58.3787 91.2188 60.0269 90.379L59.4821 89.3098Z" fill="#02020A"/>
	</symbol>
	<symbol id="warranties-3" width="100%" height="100%" viewBox="0 0 130 130" fill="none" xmlns="http://www.w3.org/2000/svg">
		<path fill-rule="evenodd" clip-rule="evenodd" d="M129 65C129 100.346 100.346 129 65 129C51.9593 129 39.8295 125.1 29.7137 118.402L28.9922 119.123C39.3002 125.995 51.6824 130 65 130C100.899 130 130 100.899 130 65C130 51.6824 125.995 39.3002 119.123 28.9922L118.402 29.7137C125.1 39.8295 129 51.9593 129 65ZM14.5572 105.997L15.2681 105.287C6.34597 94.2862 1 80.2674 1 65C1 29.6538 29.6538 1 65 1C80.2674 1 94.2862 6.34597 105.287 15.2681L105.997 14.5572C94.813 5.45594 80.5437 0 65 0C29.1015 0 0 29.1015 0 65C0 80.5437 5.45594 94.813 14.5572 105.997Z" fill="#FEC533"/>
		<rect x="63.4922" y="41.1523" width="26.5226" height="16.9819" fill="#FEC533"/>
		<path d="M42.9844 57.2129H69.507V74.023H52.7497L47.7587 78.6797V74.023H42.9844V57.2129Z" stroke="#02020A" stroke-width="1.2"/>
		<path d="M72.2687 60.9625H77.2503L82.2413 65.6192V60.9625H87.0156V44.1523H60.493V52.5574" stroke="#02020A" stroke-width="1.2"/>
		<circle cx="71.1426" cy="74.0547" r="6.14258" fill="#02020A"/>
		<ellipse cx="71.1437" cy="87.5566" rx="11.5929" ry="6.14258" fill="#02020A"/>
		<path d="M48.0977 62.6562H63.6475" stroke="#02020A" stroke-width="1.2"/>
		<path d="M48.0977 66.5078H63.6475" stroke="#02020A" stroke-width="1.2"/>
		<path d="M72.8439 53.9442H73.8839C73.8739 53.8442 73.8639 53.7442 73.8639 53.6542C73.8639 52.9442 74.1639 52.5842 74.5239 52.2342C75.0639 51.6942 75.5539 51.2442 75.5539 50.4942C75.5539 49.6742 74.8339 48.9042 73.6339 48.9042C72.8139 48.9042 72.2239 49.1842 71.6739 49.7542L72.3339 50.4842C72.6439 50.1142 73.0139 49.9142 73.5039 49.9142C74.0839 49.9142 74.3739 50.2642 74.3739 50.6142C74.3739 51.0342 74.0639 51.3342 73.6739 51.7142C73.2639 52.1342 72.8239 52.5842 72.8239 53.5742C72.8239 53.6942 72.8339 53.8142 72.8439 53.9442ZM73.3739 55.9442C73.7339 55.9442 74.0839 55.7242 74.0839 55.2542C74.0839 54.7742 73.7339 54.5542 73.3739 54.5542C73.0239 54.5542 72.6739 54.7742 72.6739 55.2542C72.6739 55.7242 73.0239 55.9442 73.3739 55.9442Z" fill="#02020A"/>
	</symbol>
	<symbol id="title_radius" width="37" height="37" viewBox="0 0 37 37" fill="none" xmlns="http://www.w3.org/2000/svg">
		<path fill-rule="evenodd" clip-rule="evenodd" d="M35.6146 5.69989C31.9658 2.75989 27.3262 1 22.2756 1C10.5254 1 1 10.5254 1 22.2756C1 27.3262 2.75989 31.9658 5.69989 35.6146L4.98886 36.3256C1.86979 32.4926 0 27.6025 0 22.2756C0 9.97312 9.97312 0 22.2756 0C27.6025 0 32.4926 1.86979 36.3256 4.98886L35.6146 5.69989Z" fill="#FEC533"/>
	</symbol>
	<symbol id="slick-arrow" width="20" height="20" viewBox="0 0 20 20" fill="none" xmlns="http://www.w3.org/2000/svg">
		<path d="M17 10L3 10" stroke="currentColor" stroke-width="1.2"/>
		<path d="M12.345 5.34497L17 9.99997L12.345 14.655" stroke="currentColor" stroke-width="1.2"/>
	</symbol>
	<symbol id="info__toggler-1" viewBox="0 0 90 90" fill="none" xmlns="http://www.w3.org/2000/svg"> 
		<path fill-rule="evenodd" clip-rule="evenodd" d="M89 45C89 69.3005 69.3005 89 45 89C36.057 89 27.7372 86.332 20.7931 81.7485L20.0715 82.47C27.2078 87.2272 35.7801 90 45 90C69.8528 90 90 69.8528 90 45C90 35.7801 87.2272 27.2078 82.47 20.0715L81.7485 20.7931C86.332 27.7372 89 36.057 89 45ZM10.0781 73.3829L10.789 72.6719C4.66724 65.113 1 55.4847 1 45C1 20.6995 20.6995 1 45 1C55.4847 1 65.113 4.66724 72.6719 10.789L73.3829 10.0781C65.6398 3.77719 55.761 0 45 0C20.1472 0 0 20.1472 0 45C0 55.761 3.77719 65.6398 10.0781 73.3829Z" fill="#FEC533"/> <g clip-path="url(#clip0_415_5126)"> <path d="M57.2901 52.1602H43.2188C43.2188 54.9744 45.43 57.1856 48.2442 57.1856V59.1958H52.2646V57.1856C55.0788 57.1856 57.2901 54.9744 57.2901 52.1602Z" fill="#FEC533"/> <path d="M55.2814 50.1509H45.2305V45.1254C45.2305 44.0198 46.1351 43.1152 47.2407 43.1152H53.2712C54.3768 43.1152 55.2814 44.0198 55.2814 45.1254V50.1509Z" fill="#FEC533"/> </g> <path fill-rule="evenodd" clip-rule="evenodd" d="M30.1523 59.1972V36.0801H31.1574V59.1972H30.1523Z" fill="white"/> <path d="M58.2969 28.0391V43.1155" stroke="white"/> <path fill-rule="evenodd" clip-rule="evenodd" d="M42.2135 59.1973L30.1523 59.1973L30.1523 58.1922L42.2135 58.1922L42.2135 59.1973Z" fill="white"/> <path d="M27.0042 31.8528L60.9273 28.3912L58.8504 25.622L55.3861 25.9755" stroke="white"/> <rect x="34.6719" y="37.584" width="4.02547" height="14.0764" stroke="white"/> <defs> <clipPath id="clip0_415_5126"> <rect width="16.0815" height="16.0815" fill="white" transform="translate(42.2148 43.1152)"/> </clipPath> </defs> 
	</symbol>
	<symbol id="info__toggler-2" viewBox="0 0 90 90" fill="none" xmlns="http://www.w3.org/2000/svg"> 
		<path fill-rule="evenodd" clip-rule="evenodd" d="M89 45C89 69.3005 69.3005 89 45 89C36.057 89 27.7372 86.332 20.7931 81.7485L20.0715 82.47C27.2078 87.2272 35.7801 90 45 90C69.8528 90 90 69.8528 90 45C90 35.7801 87.2272 27.2078 82.47 20.0715L81.7485 20.7931C86.332 27.7372 89 36.057 89 45ZM10.0781 73.3829L10.789 72.6719C4.66724 65.113 1 55.4847 1 45C1 20.6995 20.6995 1 45 1C55.4847 1 65.113 4.66724 72.6719 10.789L73.3829 10.0781C65.6398 3.77719 55.761 0 45 0C20.1472 0 0 20.1472 0 45C0 55.761 3.77719 65.6398 10.0781 73.3829Z" fill="#FEC533"/> <path fill-rule="evenodd" clip-rule="evenodd" d="M48.6155 46.9474C47.1147 47.3441 45.9474 47.3441 45.058 47.3441C42.6122 47.3441 39.7773 46.0972 39.7773 42.5832C39.7773 39.0692 42.2231 37.709 45.5583 37.709C46.1697 37.709 47.4482 37.7657 48.3376 38.1624V40.2028C47.615 39.7494 46.4477 39.5793 45.8918 39.5793C43.8907 39.5793 42.2787 40.4295 42.2787 42.6399C42.2787 44.4536 43.5572 45.5871 45.336 45.5871C45.6695 45.5871 46.003 45.4738 46.2253 45.4171V43.5468H44.7801V41.7331H48.56V46.9474" fill="#FEC533"/> <path d="M33.0156 29.624L44.9979 26.8281L56.9802 29.624C57.1133 32.0205 58.5779 36.8933 63.3708 37.2128C62.1726 41.6063 54.5837 56.3845 44.9979 63.1745C35.412 56.3845 27.8232 41.6063 26.625 37.2128C31.4179 36.8933 32.8824 32.0205 33.0156 29.624Z" stroke="white"/> <path d="M45.1875 56.8077C47.7815 54.3471 50.1628 51.4189 52.2262 48.4629" stroke="white"/> <path d="M40.7944 31.998L36.4135 33.0203C36.2955 35.1459 35.1299 39.2197 31.5234 40.3364" stroke="white"/> <circle cx="43.9912" cy="31.3135" r="1.19823" stroke="white"/> <circle r="1.19823" transform="matrix(-1 0 0 1 54.1299 45.9424)" stroke="white"/> 
	</symbol>
	<symbol id="info__toggler-3" viewBox="0 0 91 90" fill="none" xmlns="http://www.w3.org/2000/svg">
		<path fill-rule="evenodd" clip-rule="evenodd" d="M89.1875 45C89.1875 69.3005 69.488 89 45.1875 89C36.2445 89 27.9247 86.332 20.9806 81.7485L20.259 82.47C27.3953 87.2272 35.9676 90 45.1875 90C70.0403 90 90.1875 69.8528 90.1875 45C90.1875 35.7801 87.4147 27.2078 82.6575 20.0715L81.936 20.7931C86.5195 27.7372 89.1875 36.057 89.1875 45ZM10.2656 73.3829L10.9765 72.6719C4.85474 65.113 1.1875 55.4847 1.1875 45C1.1875 20.6995 20.887 1 45.1875 1C55.6722 1 65.3005 4.66724 72.8594 10.789L73.5704 10.0781C65.8273 3.77719 55.9485 0 45.1875 0C20.3347 0 0.1875 20.1472 0.1875 45C0.1875 55.761 3.96469 65.6398 10.2656 73.3829Z" fill="#FEC533"/> <g clip-path="url(#clip0_415_5157)"> <path d="M43.1911 56.6202C43.1911 56.6202 32.5005 45.9296 32.5005 38.5798C32.4874 37.1722 32.7551 35.7762 33.2877 34.4733C33.8203 33.1703 34.6073 31.9866 35.6026 30.9913C36.598 29.996 37.7817 29.209 39.0846 28.6764C40.3875 28.1437 41.7836 27.8761 43.1911 27.8891C44.5986 27.8761 45.9946 28.1437 47.2976 28.6764C48.6005 29.209 49.7842 29.996 50.7795 30.9913C51.7749 31.9866 52.5618 33.1703 53.0945 34.4733C53.6271 35.7762 53.8947 37.1722 53.8817 38.5798C53.8542 39.7888 53.6285 40.9851 53.2136 42.121" stroke="white" stroke-miterlimit="10" stroke-linecap="square"/> <path d="M43.1885 41.9199C45.0336 41.9199 46.5293 40.4242 46.5293 38.5791C46.5293 36.734 45.0336 35.2383 43.1885 35.2383C41.3434 35.2383 39.8477 36.734 39.8477 38.5791C39.8477 40.4242 41.3434 41.9199 43.1885 41.9199Z" stroke="white" stroke-miterlimit="10" stroke-linecap="square"/> <path d="M56.4589 56.6211L52.4102 52.5723" stroke="#FEC533" stroke-width="3" stroke-miterlimit="10"/> <path d="M49.4267 53.8085C51.7572 53.8085 53.6464 51.9193 53.6464 49.5888C53.6464 47.2584 51.7572 45.3691 49.4267 45.3691C47.0962 45.3691 45.207 47.2584 45.207 49.5888C45.207 51.9193 47.0962 53.8085 49.4267 53.8085Z" fill="#FEC533" stroke="#FEC533" stroke-miterlimit="10" stroke-linecap="square"/> <path d="M29.8627 55.1562L26.1172 65.2211L36.404 61.2158L44.5254 65.2211L52.6468 61.2158L62.9336 65.2211L60.605 58.9637" stroke="white"/> </g> <defs> <clipPath id="clip0_415_5157"> <rect width="41" height="41" fill="white" transform="translate(24.0234 25.6641)"/> </clipPath> </defs>
	</symbol>
	<symbol id="info__2cols-1" width="50" height="50" viewBox="0 0 50 50" fill="none" xmlns="http://www.w3.org/2000/svg">
		<path fill-rule="evenodd" clip-rule="evenodd" d="M49 25C49 38.2548 38.2548 49 25 49C20.1548 49 15.6449 47.5642 11.8727 45.0949L11.1509 45.8167C15.1155 48.4596 19.8778 50 25 50C38.8071 50 50 38.8071 50 25C50 19.8778 48.4596 15.1155 45.8167 11.1509L45.0949 11.8727C47.5642 15.6449 49 20.1548 49 25ZM5.59892 40.7683L6.30993 40.0573C2.98852 35.9397 1 30.7021 1 25C1 11.7452 11.7452 1 25 1C30.7021 1 35.9397 2.98852 40.0573 6.30993L40.7683 5.59893C36.4665 2.09844 30.9783 0 25 0C11.1929 0 0 11.1929 0 25C0 30.9783 2.09844 36.4665 5.59892 40.7683Z" fill="#FEC533"/> <g clip-path="url(#clip0_415_5193)"> <rect x="15.2578" y="22.7207" width="15.9228" height="10.1777" fill="#FEC533"/> <path d="M15.543 23.8991L25.2189 15.9824L34.8948 23.8991" stroke="#02020A" stroke-miterlimit="10"/> <path d="M17.7422 25.2188V34.4549H27.4181" stroke="#02020A" stroke-miterlimit="10" stroke-linecap="square"/> <path d="M34.8964 29.0157C34.8964 31.097 31.3779 34.4545 31.3779 34.4545C31.3779 34.4545 27.8594 31.097 27.8594 29.0157C27.8594 26.8668 29.689 25.6582 31.3779 25.6582C33.0668 25.6582 34.8964 26.8668 34.8964 29.0157Z" fill="#02020A" stroke="#02020A" stroke-miterlimit="10" stroke-linecap="square"/> <path d="M31.3758 30.5602C32.0536 30.5602 32.6031 30.0107 32.6031 29.3328C32.6031 28.655 32.0536 28.1055 31.3758 28.1055C30.6979 28.1055 30.1484 28.655 30.1484 29.3328C30.1484 30.0107 30.6979 30.5602 31.3758 30.5602Z" stroke="white" stroke-miterlimit="10" stroke-linecap="square"/> <path d="M25 29H22.5V25.5H25" stroke="#02020A" stroke-miterlimit="10" stroke-linecap="square"/> </g> <defs> <clipPath id="clip0_415_5193"> <rect width="21.1111" height="21.1111" fill="white" transform="translate(14.4453 14.4434)"/> </clipPath> </defs>
	</symbol>
	<symbol id="info__2cols-2" width="50" height="50" viewBox="0 0 50 50" fill="none" xmlns="http://www.w3.org/2000/svg">
		<path fill-rule="evenodd" clip-rule="evenodd" d="M49 25C49 38.2548 38.2548 49 25 49C20.1548 49 15.6449 47.5642 11.8727 45.0949L11.1509 45.8167C15.1155 48.4596 19.8778 50 25 50C38.8071 50 50 38.8071 50 25C50 19.8778 48.4596 15.1155 45.8167 11.1509L45.0949 11.8727C47.5642 15.6449 49 20.1548 49 25ZM5.59892 40.7683L6.30993 40.0573C2.98852 35.9397 1 30.7021 1 25C1 11.7452 11.7452 1 25 1C30.7021 1 35.9397 2.98852 40.0573 6.30993L40.7683 5.59893C36.4665 2.09844 30.9783 0 25 0C11.1929 0 0 11.1929 0 25C0 30.9783 2.09844 36.4665 5.59892 40.7683Z" fill="#FEC533"/> <g clip-path="url(#clip0_415_5177)"> <rect x="13.5195" y="20.1719" width="19.4198" height="11.4388" fill="#FEC533"/> <path d="M34.4566 21.6973H15.9844" stroke="#02020A" stroke-miterlimit="10" stroke-linecap="square"/> <path d="M24.5608 33.1322H15.9844V17.2988H34.4566V23.9012" stroke="#02020A" stroke-miterlimit="10" stroke-linecap="square"/> <path d="M20.3828 15.5391V19.0576" stroke="#02020A" stroke-miterlimit="10" stroke-linecap="square"/> <path d="M30.0586 15.5391V19.0576" stroke="#02020A" stroke-miterlimit="10" stroke-linecap="square"/> <path d="M29.7273 32.6968C31.8527 32.6968 33.5757 30.9738 33.5757 28.8484C33.5757 26.723 31.8527 25 29.7273 25C27.6019 25 25.8789 26.723 25.8789 28.8484C25.8789 30.9738 27.6019 32.6968 29.7273 32.6968Z" fill="#02020A" stroke="#02020A" stroke-miterlimit="10" stroke-linecap="round" stroke-linejoin="round"/> <path d="M29.7266 26.6484V28.8475H31.9256" stroke="white" stroke-miterlimit="10" stroke-linecap="round" stroke-linejoin="round"/> </g> <defs> <clipPath id="clip0_415_5177"> <rect width="21.1111" height="21.1111" fill="white" transform="translate(14.4453 14.4453)"/> </clipPath> </defs>
	</symbol>
	<symbol id="email_ico-footer" width="15" height="13" viewBox="0 0 15 13" fill="none" xmlns="http://www.w3.org/2000/svg">
		<path d="M14.5 6.5V12.5H0.5V0.5H14.5V6.5Z" stroke="white" stroke-miterlimit="10" stroke-linecap="square"/> <path d="M3.38281 4L7.50066 7.36915L11.6185 4" stroke="white" stroke-miterlimit="10" stroke-linecap="square"/>
	</symbol>
	<symbol id="mir" width="49" height="14" viewBox="0 0 49 14" fill="none" xmlns="http://www.w3.org/2000/svg">
		<path id="mir" fill-rule="evenodd" clip-rule="evenodd" d="M43.4992 0H34.1992C34.6992 3.1 37.6992 6 40.9992 6H48.3992C48.4992 5.7 48.4992 5.3 48.4992 5C48.4992 2.2 46.2992 0 43.4992 0Z" fill="url(#paint0_linear_768_7704)"/> <path fill-rule="evenodd" clip-rule="evenodd" d="M35 6.5V14H39.5V10H43.5C45.7 10 47.6 8.5 48.2 6.5H35Z" fill="#4DB45F"/> <path fill-rule="evenodd" clip-rule="evenodd" d="M19 0V14H23C23 14 24 14 24.5 13C27.2 7.6 28 6 28 6H28.5V14H33V0H29C29 0 28 0.1 27.5 1C25.2 5.6 24 8 24 8H23.5V0H19Z" fill="#4DB45F"/> <path fill-rule="evenodd" clip-rule="evenodd" d="M0 14V0H4.5C4.5 0 5.8 0 6.5 2C8.3 7.3 8.5 8 8.5 8C8.5 8 8.9 6.7 10.5 2C11.2 0 12.5 0 12.5 0H17V14H12.5V6.5H12L9.5 14H7.5L5 6.5H4.5V14H0Z" fill="#4DB45F"/> <defs> <linearGradient id="paint0_linear_768_7704" x1="34.1734" y1="3" x2="48.4992" y2="3" gradientUnits="userSpaceOnUse"> <stop stop-color="#00B4E6"/> <stop offset="1" stop-color="#088CCB"/> </linearGradient> </defs>
	</symbol>
	<symbol id="visa" width="42" height="14" viewBox="0 0 42 14" fill="none" xmlns="http://www.w3.org/2000/svg">
		<path d="M17.877 13.1554H14.512L16.6151 0.230943H19.9803L17.877 13.1554ZM11.6813 0.230943L8.47331 9.12052L8.09371 7.20625L8.09405 7.20694L6.96181 1.39465C6.96181 1.39465 6.8249 0.230943 5.36561 0.230943H0.0622301L0 0.449785C0 0.449785 1.62178 0.78721 3.5198 1.92706L6.44323 13.1558H9.9492L15.3027 0.230943H11.6813ZM38.148 13.1554H41.2378L38.5439 0.230597H35.839C34.5899 0.230597 34.2856 1.19378 34.2856 1.19378L29.2671 13.1554H32.7748L33.4763 11.2356H37.7539L38.148 13.1554ZM34.4454 8.58361L36.2134 3.74694L37.208 8.58361H34.4454ZM29.5302 3.33899L30.0104 0.563527C30.0104 0.563527 28.5287 0 26.984 0C25.3141 0 21.3487 0.729821 21.3487 4.27867C21.3487 7.61766 26.0028 7.65915 26.0028 9.413C26.0028 11.1668 21.8282 10.8526 20.4505 9.74662L19.9503 12.6486C19.9503 12.6486 21.4528 13.3784 23.7484 13.3784C26.0446 13.3784 29.5088 12.1895 29.5088 8.95353C29.5088 5.5931 24.8128 5.28023 24.8128 3.8192C24.8132 2.35783 28.0903 2.54556 29.5302 3.33899Z" fill="#2566AF"/> <path d="M8.09801 8.01896L6.96576 2.20667C6.96576 2.20667 6.82885 1.04297 5.36955 1.04297H0.0661368L0.00390625 1.26181C0.00390625 1.26181 2.55293 1.79007 4.9979 3.76934C7.33569 5.66113 8.09801 8.01896 8.09801 8.01896Z" fill="#E6A540"/>
	</symbol>
	<symbol id="ya-money" width="79" height="16" viewBox="0 0 79 16" fill="none" xmlns="http://www.w3.org/2000/svg">
		<g clip-path="url(#clip0_768_7714)"> <path d="M4.95 1.54842H4.215C3.105 1.54842 2.025 2.28342 2.025 4.42842C2.025 6.49842 3.015 7.15842 4.215 7.15842H4.95V1.54842ZM3.795 8.31342L1.605 13.2334H0L2.415 7.96842C1.275 7.39842 0.525 6.34842 0.525 4.42842C0.525 1.72842 2.235 0.378418 4.26 0.378418H6.33V13.2334H4.95V8.31342H3.795Z" fill="#FF0000"/> <path d="M33.2428 8.70552C33.2428 5.87053 34.3378 4.04053 36.4678 4.04053C37.2778 4.04053 37.7428 4.25053 38.1478 4.50553L37.9528 5.84053C37.5778 5.51053 37.0378 5.21053 36.4528 5.21053C35.4478 5.21053 34.7278 6.35053 34.7278 8.63052C34.7278 10.8955 35.2678 12.1855 36.4078 12.1855C37.0978 12.1855 37.6078 11.9155 37.9378 11.6305L38.2678 12.6805C37.7878 13.1005 37.2028 13.3705 36.3778 13.3705C34.4128 13.3705 33.2428 11.7955 33.2428 8.70552ZM29.1478 8.72052V13.2355H27.7378V4.17553H29.1478V8.36052L31.3228 4.17553H32.7478L30.4978 8.43552L33.0628 13.2355H31.5328L29.1478 8.72052ZM22.5478 7.88052H24.8728C24.8728 6.33553 24.6178 5.19553 23.8078 5.19553C22.9378 5.19553 22.6378 6.26053 22.5478 7.88052ZM24.0928 13.3705C22.2178 13.3705 21.0778 11.8855 21.0778 9.09552C21.0778 6.18553 21.8878 4.05553 23.8078 4.05553C25.3228 4.05553 26.3128 5.19553 26.3128 8.27052V9.05052H22.5328C22.5328 11.1055 23.1028 12.1855 24.2278 12.1855C25.0228 12.1855 25.6528 11.8255 26.0128 11.5705L26.3428 12.6505C25.7428 13.0855 24.9928 13.3705 24.0928 13.3705ZM18.1228 5.31553H16.5628V5.48053C16.5628 7.38553 16.4728 10.1755 15.7228 12.0955H18.1378V5.31553H18.1228ZM20.2228 15.0205H18.9628V13.2355H15.0778V15.0205H13.8178V12.0955H14.3728C15.1978 10.1755 15.2878 7.37053 15.2878 4.95553V4.17553H19.5028V12.0955H20.2228V15.0205ZM13.0078 4.17553V13.2355H11.6278V9.17052H9.54281V13.2355H8.13281V4.17553H9.54281V8.03052H11.6278V4.17553H13.0078Z" fill="white"/> <path d="M46.8264 1.11342H44.0364C43.9764 4.36842 43.8864 6.84342 43.7514 8.70342C43.5864 10.6234 43.3014 11.8984 42.8214 12.4984H46.8264V1.11342ZM47.7714 13.2334H42.2664L42.1464 15.3784H41.4414V12.4984H41.8164C42.4464 11.9734 42.7464 10.5334 42.9264 8.70342C43.1064 6.79842 43.1664 3.94842 43.2114 0.378418H47.7114V12.4984H48.5964V15.3784H47.8914L47.7714 13.2334Z" fill="white"/> <path d="M50.3517 8.18256H53.6368C53.7868 5.76756 53.0668 4.68756 52.1368 4.68756C51.1917 4.70256 50.4267 5.91756 50.3517 8.18256ZM52.3318 12.6826C53.5318 12.6826 54.1618 11.7076 54.1618 11.7076L54.4318 12.3976C54.4318 12.3976 53.7418 13.4176 52.3168 13.4176C50.3967 13.4176 49.5117 11.6776 49.5117 8.70756C49.5117 5.73756 50.6217 3.99756 52.1518 3.99756C53.7118 3.99756 54.7168 5.63256 54.4318 8.85756H50.3367C50.3667 11.3326 51.0117 12.6826 52.3318 12.6826Z" fill="white"/> <path d="M59.9691 8.87029H56.8791V13.2353H56.0391V4.17529H56.8791V8.18029H59.9691V4.17529H60.8241V13.2353H59.9691V8.87029Z" fill="white"/> <path d="M63.6519 8.21029V12.5753H64.1919C65.4669 12.5753 66.3369 11.9453 66.3369 10.3853C66.3369 8.85529 65.5869 8.21029 64.2819 8.21029H63.6519ZM62.8119 4.17529H63.6519V7.53529H64.3119C66.0369 7.53529 67.1469 8.46529 67.1469 10.3553C67.1469 12.2753 65.9619 13.2353 64.2519 13.2353H62.7969L62.8119 4.17529Z" fill="white"/> <path d="M69.4539 4.88029V13.2353H68.6289V4.17529H72.4689V4.88029H69.4539Z" fill="white"/> <path d="M77.9838 6.92029C77.9838 6.45529 78.0138 6.05029 78.0588 5.67529H77.9988C77.8788 6.06529 77.7137 6.45529 77.5187 6.84529L74.5638 13.2353H73.8438V4.17529H74.6388V10.4753C74.6388 10.9553 74.6088 11.3603 74.5638 11.7503H74.6238C74.7438 11.3303 74.9238 10.9403 75.1038 10.5503L78.0588 4.19029H78.7937V13.2503H77.9838C77.9838 13.2353 77.9838 6.92029 77.9838 6.92029Z" fill="white"/> </g> <defs> <clipPath id="clip0_768_7714"> <rect width="78.795" height="15" fill="white" transform="translate(0 0.378418)"/> </clipPath> </defs>
	</symbol>
	<symbol id="mastercard" width="24" height="19" viewBox="0 0 24 19" fill="none" xmlns="http://www.w3.org/2000/svg">
		<g clip-path="url(#clip0_768_7724)"> <path d="M22.6815 18.1343V18.1806H22.7247C22.7328 18.1807 22.7408 18.1787 22.7478 18.1747C22.7506 18.1727 22.7529 18.17 22.7544 18.1669C22.7559 18.1638 22.7567 18.1604 22.7565 18.157C22.7567 18.1536 22.7559 18.1503 22.7544 18.1472C22.7529 18.1442 22.7506 18.1416 22.7478 18.1397C22.7409 18.1356 22.7328 18.1335 22.7247 18.1338H22.6815V18.1343ZM22.7252 18.1016C22.7437 18.1004 22.762 18.1057 22.777 18.1166C22.783 18.1215 22.7878 18.1278 22.7909 18.1349C22.7941 18.142 22.7955 18.1498 22.7951 18.1576C22.7954 18.1642 22.7943 18.1709 22.7917 18.1771C22.7892 18.1833 22.7854 18.1889 22.7806 18.1935C22.769 18.2036 22.7545 18.2097 22.7392 18.2108L22.797 18.2767H22.7525L22.6992 18.2112H22.682V18.2767H22.6448V18.1017H22.7257L22.7252 18.1016ZM22.7136 18.3371C22.7331 18.3373 22.7525 18.3333 22.7704 18.3255C22.7877 18.3181 22.8034 18.3075 22.8167 18.2942C22.83 18.2809 22.8406 18.2652 22.848 18.2479C22.8632 18.2112 22.8632 18.17 22.848 18.1334C22.8405 18.1161 22.8299 18.1005 22.8167 18.0871C22.8034 18.0738 22.7876 18.0632 22.7704 18.0558C22.7524 18.0484 22.7331 18.0447 22.7136 18.0449C22.6938 18.0447 22.6741 18.0484 22.6557 18.0558C22.6381 18.0631 22.622 18.0737 22.6084 18.0871C22.588 18.1081 22.5741 18.1346 22.5686 18.1634C22.5631 18.1922 22.5662 18.222 22.5775 18.2491C22.5846 18.2664 22.5951 18.2822 22.6084 18.2953C22.622 18.3087 22.6381 18.3194 22.6557 18.3267C22.674 18.3345 22.6937 18.3384 22.7136 18.3383V18.3371ZM22.7136 18.0028C22.7644 18.0027 22.8133 18.0227 22.8495 18.0583C22.867 18.0754 22.8809 18.0958 22.8905 18.1183C22.9004 18.1415 22.9054 18.1664 22.9054 18.1915C22.9054 18.2167 22.9004 18.2416 22.8905 18.2647C22.8807 18.2871 22.8668 18.3074 22.8495 18.3247C22.8318 18.3417 22.8111 18.3555 22.7886 18.3652C22.7648 18.3753 22.7393 18.3804 22.7136 18.3802C22.6875 18.3804 22.6617 18.3753 22.6377 18.3652C22.6149 18.3557 22.594 18.3419 22.5763 18.3247C22.559 18.3068 22.5453 18.2858 22.5359 18.2627C22.526 18.2396 22.5209 18.2147 22.5209 18.1895C22.5209 18.1644 22.526 18.1395 22.5359 18.1164C22.5455 18.0939 22.5594 18.0734 22.5769 18.0563C22.5944 18.0388 22.6153 18.025 22.6383 18.0158C22.6623 18.0057 22.6881 18.0006 22.7142 18.0008L22.7136 18.0028ZM5.0005 17.3268C5.0005 16.9931 5.21914 16.7189 5.57648 16.7189C5.91797 16.7189 6.1484 16.9813 6.1484 17.3268C6.1484 17.6724 5.91797 17.9348 5.57648 17.9348C5.21914 17.9348 5.0005 17.6606 5.0005 17.3268ZM6.53767 17.3268V16.3771H6.1248V16.6085C5.99385 16.4375 5.79523 16.3302 5.52511 16.3302C4.99298 16.3302 4.57537 16.7476 4.57537 17.3273C4.57537 17.907 4.99275 18.3244 5.52511 18.3244C5.79511 18.3244 5.99385 18.217 6.1248 18.0462V18.2767H6.53721V17.3268H6.53767ZM20.4879 17.3268C20.4879 16.9931 20.7065 16.7189 21.064 16.7189C21.4058 16.7189 21.6359 16.9813 21.6359 17.3268C21.6359 17.6724 21.4058 17.9348 21.064 17.9348C20.7066 17.9348 20.4879 17.6606 20.4879 17.3268ZM22.0255 17.3268V15.6147H21.6123V16.6085C21.4814 16.4375 21.2827 16.3302 21.0126 16.3302C20.4805 16.3302 20.0629 16.7476 20.0629 17.3273C20.0629 17.907 20.4802 18.3244 21.0126 18.3244C21.2827 18.3244 21.4814 18.217 21.6123 18.0462V18.2767H22.0255V17.3268ZM11.6619 16.6994C11.9279 16.6994 12.0988 16.8662 12.1424 17.1599H11.1573C11.2014 16.8857 11.3678 16.6994 11.662 16.6994H11.6619ZM11.6702 16.3292C11.1138 16.3292 10.7245 16.7341 10.7245 17.3263C10.7245 17.93 11.1294 18.3233 11.6979 18.3233C11.9838 18.3233 12.2457 18.252 12.4762 18.0573L12.2738 17.7513C12.1147 17.8785 11.912 17.9499 11.7215 17.9499C11.4554 17.9499 11.2132 17.8267 11.1536 17.4849H12.5634C12.5674 17.4335 12.5716 17.3817 12.5716 17.3262C12.5674 16.7342 12.2014 16.3291 11.67 16.3291L11.6702 16.3292ZM16.6547 17.3262C16.6547 16.9924 16.8733 16.7182 17.2307 16.7182C17.5721 16.7182 17.8026 16.9806 17.8026 17.3262C17.8026 17.6717 17.5721 17.9341 17.2307 17.9341C16.8733 17.9341 16.6546 17.6599 16.6546 17.3262H16.6547ZM18.1917 17.3262V16.3771H17.7791V16.6085C17.6477 16.4375 17.4495 16.3302 17.1794 16.3302C16.6473 16.3302 16.2297 16.7476 16.2297 17.3273C16.2297 17.907 16.647 18.3244 17.1794 18.3244C17.4495 18.3244 17.6477 18.217 17.7791 18.0462V18.2767H18.1918V17.3268L18.1917 17.3262ZM14.3231 17.3262C14.3231 17.9021 14.7241 18.3232 15.336 18.3232C15.622 18.3232 15.8125 18.2596 16.0185 18.0968L15.8203 17.7631C15.6653 17.8745 15.5025 17.9341 15.3228 17.9341C14.9933 17.93 14.7509 17.6917 14.7509 17.3262C14.7509 16.9606 14.9933 16.7224 15.3228 16.7182C15.502 16.7182 15.6648 16.7778 15.8203 16.8892L16.0185 16.5555C15.8122 16.3927 15.6216 16.3291 15.336 16.3291C14.7241 16.3291 14.3231 16.7501 14.3231 17.3262ZM19.6456 16.3291C19.4074 16.3291 19.2523 16.4405 19.1451 16.6073V16.3771H18.7359V18.2757H19.1492V17.2114C19.1492 16.8972 19.2842 16.7226 19.5541 16.7226C19.6425 16.7214 19.7302 16.7376 19.8123 16.7704L19.9396 16.3813C19.8482 16.3453 19.729 16.3294 19.6454 16.3294L19.6456 16.3291ZM8.57886 16.5281C8.38024 16.3971 8.10654 16.3294 7.80461 16.3294C7.32361 16.3294 7.01393 16.56 7.01393 16.9372C7.01393 17.2468 7.24448 17.4378 7.66903 17.4974L7.86407 17.5251C8.09046 17.5569 8.19735 17.6165 8.19735 17.7238C8.19735 17.8706 8.04696 17.9543 7.76458 17.9543C7.47862 17.9543 7.27224 17.8629 7.13308 17.7557L6.93908 18.0776C7.16547 18.2444 7.45143 18.324 7.76111 18.324C8.30944 18.324 8.62722 18.0658 8.62722 17.7043C8.62722 17.3706 8.37712 17.196 7.9639 17.1364L7.76933 17.1082C7.5906 17.0851 7.44739 17.0491 7.44739 16.9218C7.44739 16.783 7.58239 16.6995 7.80889 16.6995C8.05124 16.6995 8.28584 16.7909 8.40083 16.8623L8.57956 16.5285L8.57886 16.5281ZM13.9061 16.3298C13.6679 16.3298 13.5128 16.4412 13.406 16.608V16.3771H12.9968V18.2757H13.4097V17.2114C13.4097 16.8972 13.5447 16.7226 13.8146 16.7226C13.903 16.7214 13.9907 16.7376 14.0728 16.7704L14.2 16.3813C14.1087 16.3453 13.9895 16.3294 13.9059 16.3294L13.9061 16.3298ZM10.3829 16.3771H9.7078V15.8011H9.29042V16.3771H8.90532V16.7544H9.29042V17.6206C9.29042 18.0611 9.46139 18.3234 9.9498 18.3234C10.129 18.3234 10.3354 18.2679 10.4663 18.1766L10.347 17.8231C10.2238 17.8945 10.0888 17.9305 9.9815 17.9305C9.77512 17.9305 9.7078 17.8032 9.7078 17.6127V16.7548H10.3829V16.3771ZM4.21028 18.2761V17.0846C4.21028 16.6359 3.92432 16.3339 3.46333 16.3299C3.22098 16.3258 2.97099 16.4013 2.79596 16.6677C2.66501 16.4571 2.45864 16.3299 2.16851 16.3299C1.96572 16.3299 1.76756 16.3895 1.61243 16.6118V16.3771H1.19922V18.2757H1.61567V17.223C1.61567 16.8934 1.79845 16.7182 2.08071 16.7182C2.35487 16.7182 2.49357 16.897 2.49357 17.2188V18.2754H2.91095V17.2227C2.91095 16.8932 3.10148 16.718 3.37553 16.718C3.65744 16.718 3.79198 16.8967 3.79198 17.2186V18.2752L4.21028 18.2761Z" fill="white"/> <path d="M22.9151 11.9607V11.6831H22.8428L22.7591 11.8736L22.676 11.6831H22.6034V11.9607H22.6548V11.7516L22.733 11.932H22.7862L22.8644 11.7511V11.9607H22.9153H22.9151ZM22.4564 11.9607V11.7306H22.549V11.6838H22.3125V11.7306H22.405V11.9607H22.4559H22.4564Z" fill="#F79410"/> <path d="M14.6981 13.1519H8.44141V1.90771H14.6983L14.6981 13.1519Z" fill="#FF5F00"/> <path d="M8.83805 7.52948C8.83805 5.2486 9.90602 3.21677 11.569 1.90738C10.3102 0.914777 8.75324 0.376057 7.15014 0.378426C3.20113 0.378426 0 3.58001 0 7.52948C0 11.4789 3.20113 14.6805 7.15014 14.6805C8.75328 14.6829 10.3103 14.1442 11.5692 13.1516C9.90625 11.8424 8.83805 9.81048 8.83805 7.52948Z" fill="#EB001B"/> <path d="M23.14 7.52948C23.14 11.479 19.9389 14.6805 15.9899 14.6805C14.3866 14.6829 12.8294 14.1442 11.5703 13.1516C13.2338 11.8422 14.3018 9.81048 14.3018 7.52948C14.3018 5.24848 13.2338 3.21678 11.5703 1.90738C12.8294 0.914808 14.3865 0.376099 15.9898 0.378425C19.9388 0.378425 23.1399 3.58002 23.1399 7.52948" fill="#F79E1B"/> </g> <defs> <clipPath id="clip0_768_7724"> <rect width="23.1362" height="18" fill="white" transform="translate(0 0.378418)"/> </clipPath> </defs>
	</symbol>
</svg>