<svg>	
	<symbol id="map_pin" width="18" height="18" viewBox="0 0 18 18" fill="none" xmlns="http://www.w3.org/2000/svg"> <g clip-path="url(#clip0_609_16302)"> <path d="M15.1875 6.75C15.1875 11.8125 9 17.4375 9 17.4375C9 17.4375 2.8125 11.8125 2.8125 6.75C2.8125 5.10897 3.4644 3.53516 4.62478 2.37478C5.78516 1.2144 7.35897 0.5625 9 0.5625C10.641 0.5625 12.2148 1.2144 13.3752 2.37478C14.5356 3.53516 15.1875 5.10897 15.1875 6.75V6.75Z" stroke="currentColor" stroke-width="1.2" stroke-linecap="round" stroke-linejoin="round"/> <path d="M9 9.5625C10.5533 9.5625 11.8125 8.3033 11.8125 6.75C11.8125 5.1967 10.5533 3.9375 9 3.9375C7.4467 3.9375 6.1875 5.1967 6.1875 6.75C6.1875 8.3033 7.4467 9.5625 9 9.5625Z" stroke="currentColor" stroke-width="1.2" stroke-linecap="round" stroke-linejoin="round"/> </g> <defs> <clipPath id="clip0_609_16302"> <rect width="18" height="18" fill="white"/> </clipPath> </defs> </symbol>
	<symbol id="chevron" width="10" height="6" viewBox="0 0 10 6" fill="none" xmlns="http://www.w3.org/2000/svg"><path d="M1 1L5 5L9 1" stroke="currentColor" stroke-width="1.2"/></symbol>
	<symbol id="account_avatar" width="24" height="24" viewBox="0 0 24 24" fill="none" xmlns="http://www.w3.org/2000/svg">
		<path d="M11.9998 11.9996C14.485 11.9996 16.4996 9.98498 16.4996 7.49981C16.4996 5.01463 14.485 3 11.9998 3C9.51463 3 7.5 5.01463 7.5 7.49981C7.5 9.98498 9.51463 11.9996 11.9998 11.9996Z" stroke="currentColor" stroke-width="1.2" stroke-miterlimit="10" stroke-linecap="square"/>
		<path d="M20.9992 20.9997V19.5261C20.9992 18.4611 20.4405 17.4816 19.524 16.9394C18.0653 16.0762 15.5365 15 11.9996 15C8.41702 15 5.90462 16.0695 4.46094 16.9312C3.55198 17.4741 3 18.4506 3 19.5096V20.9997H20.9992Z" stroke="currentColor" stroke-width="1.2" stroke-miterlimit="10" stroke-linecap="square"/>
	</symbol>
	<symbol id="search" width="24" height="24" viewBox="0 0 24 24" fill="none" xmlns="http://www.w3.org/2000/svg"> <circle cx="10.0436" cy="10.0436" r="6.54362" stroke="currentColor"/> <path d="M14.5715 14.5717L21.0001 21.0002" stroke="currentColor" stroke-width="1.2"/> </symbol>
	<symbol id="favorite" width="24" height="24" viewBox="0 0 24 24" fill="none" xmlns="http://www.w3.org/2000/svg">
		<path d="M21 8.9146C20.9985 7.85335 20.6469 6.82225 19.9997 5.98119C19.3524 5.14014 18.4458 4.53614 17.4203 4.26285C16.3949 3.98957 15.3079 4.06227 14.328 4.46969C13.348 4.8771 12.5299 5.59647 12.0005 6.51622C11.6537 5.90975 11.1791 5.38595 10.6097 4.98113C10.0404 4.57631 9.38976 4.30017 8.70302 4.17183C8.01629 4.0435 7.30986 4.06604 6.63271 4.23791C5.95556 4.40978 5.32388 4.72685 4.78148 5.16716C4.23907 5.60746 3.7989 6.16045 3.49149 6.78781C3.18409 7.41516 3.01679 8.10186 3.0012 8.80031C2.98561 9.49876 3.12211 10.1922 3.40122 10.8327C3.68033 11.4731 4.09538 12.0452 4.61761 12.5093L12.0005 19.9114L19.3833 12.5093C19.8918 12.0586 20.2988 11.5051 20.5775 10.8855C20.8562 10.2658 21.0002 9.59405 21 8.9146Z" stroke="currentColor" stroke-width="1.2" stroke-miterlimit="10" stroke-linecap="square"/>
	</symbol>
	<symbol id="compare" width="24" height="24" viewBox="0 0 24 24" fill="none" xmlns="http://www.w3.org/2000/svg">
		<rect x="4" y="7.56641" width="3" height="11.4598" stroke="currentColor" stroke-width="1.2"/>
		<rect x="10" y="4" width="3" height="15.0267" stroke="currentColor" stroke-width="1.2"/>
		<rect x="16" y="9.75781" width="3" height="9.26741" stroke="currentColor" stroke-width="1.2"/>
	</symbol>
	<symbol id="cart" width="31" height="30" viewBox="0 0 31 30" fill="none" xmlns="http://www.w3.org/2000/svg">
		<path d="M3 8H6.33333V21.3333H18L21.3333 13H6.33333" stroke="currentColor" stroke-width="1.2" stroke-linecap="square"/>
		<path d="M8.36797 25.2672C8.36797 25.9852 7.78594 26.5672 7.06797 26.5672C6.35 26.5672 5.76797 25.9852 5.76797 25.2672C5.76797 24.5492 6.35 23.9672 7.06797 23.9672C7.78594 23.9672 8.36797 24.5492 8.36797 25.2672Z" stroke="currentColor" stroke-width="1.2" stroke-linecap="square"/>
		<path d="M19.8992 25.2672C19.8992 25.9852 19.3172 26.5672 18.5992 26.5672C17.8812 26.5672 17.2992 25.9852 17.2992 25.2672C17.2992 24.5492 17.8812 23.9672 18.5992 23.9672C19.3172 23.9672 19.8992 24.5492 19.8992 25.2672Z" stroke="currentColor" stroke-width="1.2" stroke-linecap="square"/>
	</symbol>
</svg>