<svg>	
	<symbol id="map_pin" width="18" height="18" viewBox="0 0 18 18" fill="none" xmlns="http://www.w3.org/2000/svg"> <g clip-path="url(#clip0_609_16302)"> <path d="M15.1875 6.75C15.1875 11.8125 9 17.4375 9 17.4375C9 17.4375 2.8125 11.8125 2.8125 6.75C2.8125 5.10897 3.4644 3.53516 4.62478 2.37478C5.78516 1.2144 7.35897 0.5625 9 0.5625C10.641 0.5625 12.2148 1.2144 13.3752 2.37478C14.5356 3.53516 15.1875 5.10897 15.1875 6.75V6.75Z" stroke="currentColor" stroke-width="1.2" stroke-linecap="round" stroke-linejoin="round"/> <path d="M9 9.5625C10.5533 9.5625 11.8125 8.3033 11.8125 6.75C11.8125 5.1967 10.5533 3.9375 9 3.9375C7.4467 3.9375 6.1875 5.1967 6.1875 6.75C6.1875 8.3033 7.4467 9.5625 9 9.5625Z" stroke="currentColor" stroke-width="1.2" stroke-linecap="round" stroke-linejoin="round"/> </g> <defs> <clipPath id="clip0_609_16302"> <rect width="18" height="18" fill="white"/> </clipPath> </defs> </symbol>
	<symbol id="chevron" width="10" height="6" viewBox="0 0 10 6" fill="none" xmlns="http://www.w3.org/2000/svg"><path d="M1 1L5 5L9 1" stroke="currentColor" stroke-width="1.2"/></symbol>
	<symbol id="account_avatar" width="24" height="24" viewBox="0 0 24 24" fill="none" xmlns="http://www.w3.org/2000/svg">
		<path d="M11.9998 11.9996C14.485 11.9996 16.4996 9.98498 16.4996 7.49981C16.4996 5.01463 14.485 3 11.9998 3C9.51463 3 7.5 5.01463 7.5 7.49981C7.5 9.98498 9.51463 11.9996 11.9998 11.9996Z" stroke="currentColor" stroke-width="1.2" stroke-miterlimit="10" stroke-linecap="square"/>
		<path d="M20.9992 20.9997V19.5261C20.9992 18.4611 20.4405 17.4816 19.524 16.9394C18.0653 16.0762 15.5365 15 11.9996 15C8.41702 15 5.90462 16.0695 4.46094 16.9312C3.55198 17.4741 3 18.4506 3 19.5096V20.9997H20.9992Z" stroke="currentColor" stroke-width="1.2" stroke-miterlimit="10" stroke-linecap="square"/>
	</symbol>
	<symbol id="search" width="24" height="24" viewBox="0 0 24 24" fill="none" xmlns="http://www.w3.org/2000/svg"> <circle cx="10.0436" cy="10.0436" r="6.54362" stroke="currentColor"/> <path d="M14.5715 14.5717L21.0001 21.0002" stroke="currentColor" stroke-width="1.2"/> </symbol>
	<symbol id="favorite" width="24" height="24" viewBox="0 0 24 24" fill="none" xmlns="http://www.w3.org/2000/svg">
		<path d="M21 8.9146C20.9985 7.85335 20.6469 6.82225 19.9997 5.98119C19.3524 5.14014 18.4458 4.53614 17.4203 4.26285C16.3949 3.98957 15.3079 4.06227 14.328 4.46969C13.348 4.8771 12.5299 5.59647 12.0005 6.51622C11.6537 5.90975 11.1791 5.38595 10.6097 4.98113C10.0404 4.57631 9.38976 4.30017 8.70302 4.17183C8.01629 4.0435 7.30986 4.06604 6.63271 4.23791C5.95556 4.40978 5.32388 4.72685 4.78148 5.16716C4.23907 5.60746 3.7989 6.16045 3.49149 6.78781C3.18409 7.41516 3.01679 8.10186 3.0012 8.80031C2.98561 9.49876 3.12211 10.1922 3.40122 10.8327C3.68033 11.4731 4.09538 12.0452 4.61761 12.5093L12.0005 19.9114L19.3833 12.5093C19.8918 12.0586 20.2988 11.5051 20.5775 10.8855C20.8562 10.2658 21.0002 9.59405 21 8.9146Z" stroke="currentColor" stroke-width="1.2" stroke-miterlimit="10" stroke-linecap="square"/>
	</symbol>
	<symbol id="compare" width="24" height="24" viewBox="0 0 24 24" fill="none" xmlns="http://www.w3.org/2000/svg">
		<rect x="4" y="7.56641" width="3" height="11.4598" stroke="currentColor" stroke-width="1.2"/>
		<rect x="10" y="4" width="3" height="15.0267" stroke="currentColor" stroke-width="1.2"/>
		<rect x="16" y="9.75781" width="3" height="9.26741" stroke="currentColor" stroke-width="1.2"/>
	</symbol>
	<symbol id="cart" width="31" height="30" viewBox="0 0 31 30" fill="none" xmlns="http://www.w3.org/2000/svg">
		<path d="M3 8H6.33333V21.3333H18L21.3333 13H6.33333" stroke="currentColor" stroke-width="1.2" stroke-linecap="square"/>
		<path d="M8.36797 25.2672C8.36797 25.9852 7.78594 26.5672 7.06797 26.5672C6.35 26.5672 5.76797 25.9852 5.76797 25.2672C5.76797 24.5492 6.35 23.9672 7.06797 23.9672C7.78594 23.9672 8.36797 24.5492 8.36797 25.2672Z" stroke="currentColor" stroke-width="1.2" stroke-linecap="square"/>
		<path d="M19.8992 25.2672C19.8992 25.9852 19.3172 26.5672 18.5992 26.5672C17.8812 26.5672 17.2992 25.9852 17.2992 25.2672C17.2992 24.5492 17.8812 23.9672 18.5992 23.9672C19.3172 23.9672 19.8992 24.5492 19.8992 25.2672Z" stroke="currentColor" stroke-width="1.2" stroke-linecap="square"/>
	</symbol>
	<symbol id="arrow_right_top" width="14" height="14" viewBox="0 0 14 14" fill="none" xmlns="http://www.w3.org/2000/svg">
		<path d="M11 2.9961L1.09167 12.9044" stroke="currentColor" stroke-width="1.2"/>
		<path d="M4.37092 3.03533H10.9572V9.62161" stroke="currentColor" stroke-width="1.2"/>
	</symbol>
	<symbol id="phone" width="24" height="24" viewBox="0 0 24 24" fill="none" xmlns="http://www.w3.org/2000/svg">
		<path d="M5 4H9L11 9L8.5 10.5C9.57096 12.6715 11.3285 14.429 13.5 15.5L15 13L20 15V19C20 20.1046 19.1046 21 18 21C9.92765 20.5094 3.49056 14.0724 3 6C3 4.89543 3.89543 4 5 4" stroke="currentColor" stroke-width="1.2" stroke-linecap="round" stroke-linejoin="round"/>
	</symbol>
	<symbol id="menu-btn" width="24" height="16" viewBox="0 0 24 16" fill="none" xmlns="http://www.w3.org/2000/svg">
		<path d="M0.890381 8H23.1098" stroke="currentColor" stroke-width="1.2" stroke-miterlimit="10" stroke-linecap="square"/>
		<path d="M0.890381 1H23.1098" stroke="currentColor" stroke-width="1.2" stroke-miterlimit="10" stroke-linecap="square"/>
		<path d="M0.890381 15H12.0001" stroke="currentColor" stroke-width="1.2" stroke-miterlimit="10" stroke-linecap="square"/>
	</symbol>
	<symbol id="catalog_section-icon" width="51" height="51" viewBox="0 0 51 51" fill="none" xmlns="http://www.w3.org/2000/svg">
		<path fill-rule="evenodd" clip-rule="evenodd" d="M50 25.5C50 39.031 39.031 50 25.5 50C20.5514 50 15.9455 48.5329 12.0935 46.0098L11.3718 46.7316C15.4161 49.4282 20.2745 51 25.5 51C39.5833 51 51 39.5833 51 25.5C51 20.2745 49.4282 15.4161 46.7316 11.3718L46.0098 12.0935C48.5329 15.9455 50 20.5514 50 25.5ZM5.70933 41.5817L6.42034 40.8707C3.02986 36.6674 1 31.3207 1 25.5C1 11.969 11.969 1 25.5 1C31.3207 1 36.6674 3.02986 40.8707 6.42034L41.5817 5.70933C37.1942 2.13978 31.597 0 25.5 0C11.4167 0 0 11.4167 0 25.5C0 31.597 2.13978 37.1942 5.70933 41.5817Z" fill="#FEC533"/>
		<path d="M24.3281 23.9922L33.8179 21.9751L35.5227 29.9952L26.0329 32.0123L24.3281 23.9922Z" fill="#FEC533"/>
		<path d="M24.6959 30.7555L23.5439 25.336L33.239 23.2752L34.7904 30.5741L34.9132 31.1517" stroke="#02020A" stroke-width="1.2"/>
		<path d="M32.1639 23.5042L30.5611 15.9636L23.0205 17.5664L24.1938 23.0865" stroke="#02020A" stroke-width="1.2"/>
		<rect x="25.5322" y="17.0313" width="2.56967" height="2.93677" transform="rotate(-12 25.5322 17.0313)" stroke="#02020A" stroke-width="1.2"/>
		<rect x="27.1338" y="24.5723" width="2.56967" height="2.93677" transform="rotate(-12 27.1338 24.5723)" stroke="#02020A" stroke-width="1.2"/>
		<rect x="19.6055" y="21.8711" width="1.37144" height="11.1986" transform="rotate(-12 19.6055 21.8711)" fill="#02020A"/>
		<rect x="20.9336" y="21.5859" width="1.58466" height="4.11431" transform="rotate(78 20.9336 21.5859)" fill="#02020A"/>
		<rect x="24.6094" y="34.332" width="1.37144" height="11.8118" transform="rotate(-102 24.6094 34.332)" fill="#02020A"/>
		<path fill-rule="evenodd" clip-rule="evenodd" d="M23.977 36.3101C25.1043 35.7357 25.5526 34.3561 24.9782 33.2287C24.4037 32.1013 23.0241 31.6531 21.8968 32.2275C20.7694 32.8019 20.3211 34.1815 20.8956 35.3089C21.47 36.4363 22.8496 36.8845 23.977 36.3101ZM23.4364 35.2487C23.9671 34.9783 24.1782 34.3288 23.9077 33.7981C23.6373 33.2674 22.9878 33.0563 22.4571 33.3268C21.9263 33.5972 21.7153 34.2467 21.9857 34.7774C22.2562 35.3081 22.9057 35.5192 23.4364 35.2487Z" fill="#02020A"/>
		<path d="M24.4436 33.5011C24.8676 34.3332 24.5367 35.3515 23.7046 35.7755L24.2494 36.8447C25.672 36.1198 26.2376 34.3789 25.5128 32.9563L24.4436 33.5011ZM22.1692 32.7621C23.0013 32.3381 24.0196 32.669 24.4436 33.5011L25.5128 32.9563C24.7879 31.5337 23.047 30.968 21.6244 31.6929L22.1692 32.7621ZM21.4302 35.0365C21.0062 34.2044 21.337 33.1861 22.1692 32.7621L21.6244 31.6929C20.2017 32.4177 19.6361 34.1586 20.361 35.5813L21.4302 35.0365ZM23.7046 35.7755C22.8724 36.1995 21.8542 35.8686 21.4302 35.0365L20.361 35.5813C21.0858 37.0039 22.8267 37.5696 24.2494 36.8447L23.7046 35.7755ZM23.3731 34.0705C23.4931 34.306 23.3995 34.5942 23.164 34.7141L23.7088 35.7834C24.5348 35.3625 24.8632 34.3517 24.4423 33.5257L23.3731 34.0705ZM22.7295 33.8614C22.965 33.7414 23.2531 33.835 23.3731 34.0705L24.4423 33.5257C24.0215 32.6997 23.0107 32.3713 22.1847 32.7922L22.7295 33.8614ZM22.5203 34.505C22.4004 34.2695 22.494 33.9813 22.7295 33.8614L22.1847 32.7922C21.3587 33.213 21.0303 34.2238 21.4511 35.0498L22.5203 34.505ZM23.164 34.7141C22.9285 34.8341 22.6403 34.7405 22.5203 34.505L21.4511 35.0498C21.872 35.8758 22.8828 36.2042 23.7088 35.7834L23.164 34.7141Z" fill="#02020A"/>
	</symbol>
	<symbol id="youtube" width="24" height="24" viewBox="0 0 24 24" fill="none" xmlns="http://www.w3.org/2000/svg">
		<path fill-rule="evenodd" clip-rule="evenodd" d="M0 12C0 5.37258 5.37258 0 12 0C18.6274 0 24 5.37258 24 12C24 18.6274 18.6274 24 12 24C5.37258 24 0 18.6274 0 12Z" fill="#FF0000"/>
		<path fill-rule="evenodd" clip-rule="evenodd" d="M18.1325 8.83661C17.9853 8.27111 17.5516 7.8258 17.0008 7.67466C16.0027 7.4 12 7.4 12 7.4C12 7.4 7.99735 7.4 6.99916 7.67466C6.4484 7.8258 6.01465 8.27111 5.86745 8.83661C5.60004 9.86152 5.60004 12 5.60004 12C5.60004 12 5.60004 14.1384 5.86745 15.1634C6.01465 15.7289 6.4484 16.1742 6.99916 16.3254C7.99735 16.6 12 16.6 12 16.6C12 16.6 16.0027 16.6 17.0008 16.3254C17.5516 16.1742 17.9853 15.7289 18.1325 15.1634C18.4 14.1384 18.4 12 18.4 12C18.4 12 18.4 9.86152 18.1325 8.83661Z" fill="white"/>
		<path fill-rule="evenodd" clip-rule="evenodd" d="M10.8 14V10L14 12.0001L10.8 14Z" fill="#FF0000"/>
	</symbol>
</svg>