<svg width="50" height="50" viewBox="0 0 50 50" fill="none" xmlns="http://www.w3.org/2000/svg">
	<path fill-rule="evenodd" clip-rule="evenodd" d="M49 25C49 38.2548 38.2548 49 25 49C20.1548 49 15.6449 47.5642 11.8727 45.0949L11.1509 45.8167C15.1155 48.4596 19.8778 50 25 50C38.8071 50 50 38.8071 50 25C50 19.8778 48.4596 15.1155 45.8167 11.1509L45.0949 11.8727C47.5642 15.6449 49 20.1548 49 25ZM5.59892 40.7683L6.30993 40.0573C2.98852 35.9397 1 30.7021 1 25C1 11.7452 11.7452 1 25 1C30.7021 1 35.9397 2.98852 40.0573 6.30993L40.7683 5.59893C36.4665 2.09844 30.9783 0 25 0C11.1929 0 0 11.1929 0 25C0 30.9783 2.09844 36.4665 5.59892 40.7683Z" fill="#FEC533"/> <g clip-path="url(#clip0_415_5193)"> <rect x="15.2578" y="22.7207" width="15.9228" height="10.1777" fill="#FEC533"/> <path d="M15.543 23.8991L25.2189 15.9824L34.8948 23.8991" stroke="#02020A" stroke-miterlimit="10"/> <path d="M17.7422 25.2188V34.4549H27.4181" stroke="#02020A" stroke-miterlimit="10" stroke-linecap="square"/> <path d="M34.8964 29.0157C34.8964 31.097 31.3779 34.4545 31.3779 34.4545C31.3779 34.4545 27.8594 31.097 27.8594 29.0157C27.8594 26.8668 29.689 25.6582 31.3779 25.6582C33.0668 25.6582 34.8964 26.8668 34.8964 29.0157Z" fill="#02020A" stroke="#02020A" stroke-miterlimit="10" stroke-linecap="square"/> <path d="M31.3758 30.5602C32.0536 30.5602 32.6031 30.0107 32.6031 29.3328C32.6031 28.655 32.0536 28.1055 31.3758 28.1055C30.6979 28.1055 30.1484 28.655 30.1484 29.3328C30.1484 30.0107 30.6979 30.5602 31.3758 30.5602Z" stroke="white" stroke-miterlimit="10" stroke-linecap="square"/> <path d="M25 29H22.5V25.5H25" stroke="#02020A" stroke-miterlimit="10" stroke-linecap="square"/> </g> <defs> <clipPath id="clip0_415_5193"> <rect width="21.1111" height="21.1111" fill="white" transform="translate(14.4453 14.4434)"/> </clipPath> </defs>
</svg>
