<svg width="90" height="90" viewBox="0 0 90 90" fill="none" xmlns="http://www.w3.org/2000/svg"> <path fill-rule="evenodd" clip-rule="evenodd" d="M89 45C89 69.3005 69.3005 89 45 89C36.057 89 27.7372 86.332 20.7931 81.7485L20.0715 82.47C27.2078 87.2272 35.7801 90 45 90C69.8528 90 90 69.8528 90 45C90 35.7801 87.2272 27.2078 82.47 20.0715L81.7485 20.7931C86.332 27.7372 89 36.057 89 45ZM10.0781 73.3829L10.789 72.6719C4.66724 65.113 1 55.4847 1 45C1 20.6995 20.6995 1 45 1C55.4847 1 65.113 4.66724 72.6719 10.789L73.3829 10.0781C65.6398 3.77719 55.761 0 45 0C20.1472 0 0 20.1472 0 45C0 55.761 3.77719 65.6398 10.0781 73.3829Z" fill="#FEC533"/> <path fill-rule="evenodd" clip-rule="evenodd" d="M48.6155 46.9474C47.1147 47.3441 45.9474 47.3441 45.058 47.3441C42.6122 47.3441 39.7773 46.0972 39.7773 42.5832C39.7773 39.0692 42.2231 37.709 45.5583 37.709C46.1697 37.709 47.4482 37.7657 48.3376 38.1624V40.2028C47.615 39.7494 46.4477 39.5793 45.8918 39.5793C43.8907 39.5793 42.2787 40.4295 42.2787 42.6399C42.2787 44.4536 43.5572 45.5871 45.336 45.5871C45.6695 45.5871 46.003 45.4738 46.2253 45.4171V43.5468H44.7801V41.7331H48.56V46.9474" fill="#FEC533"/> <path d="M33.0156 29.624L44.9979 26.8281L56.9802 29.624C57.1133 32.0205 58.5779 36.8933 63.3708 37.2128C62.1726 41.6063 54.5837 56.3845 44.9979 63.1745C35.412 56.3845 27.8232 41.6063 26.625 37.2128C31.4179 36.8933 32.8824 32.0205 33.0156 29.624Z" stroke="white"/> <path d="M45.1875 56.8077C47.7815 54.3471 50.1628 51.4189 52.2262 48.4629" stroke="white"/> <path d="M40.7944 31.998L36.4135 33.0203C36.2955 35.1459 35.1299 39.2197 31.5234 40.3364" stroke="white"/> <circle cx="43.9912" cy="31.3135" r="1.19823" stroke="white"/> <circle r="1.19823" transform="matrix(-1 0 0 1 54.1299 45.9424)" stroke="white"/> </svg>