<svg width="32" height="32" viewBox="0 0 32 32" fill="none" xmlns="http://www.w3.org/2000/svg">
<path fill-rule="evenodd" clip-rule="evenodd" d="M31 16C31 24.2843 24.2843 31 16 31C12.9985 31 10.2029 30.1184 7.858 28.6001L7.13585 29.3222C9.67333 31.0139 12.7215 32 16 32C24.8366 32 32 24.8366 32 16C32 12.7215 31.0139 9.67333 29.3222 7.13585L28.6001 7.858C30.1184 10.2029 31 12.9985 31 16ZM3.58279 26.091L4.29389 25.3799C2.23293 22.8112 1 19.5496 1 16C1 7.71573 7.71573 1 16 1C19.5496 1 22.8112 2.23293 25.3799 4.29389L26.091 3.58279C23.338 1.34279 19.8258 0 16 0C7.16344 0 0 7.16344 0 16C0 19.8258 1.34279 23.338 3.58279 26.091Z" fill="#FEC533"/>
<path d="M10.2305 20.8492V12.0681C10.2305 11.6522 10.3731 11.2533 10.6271 10.9593C10.8811 10.6652 11.2255 10.5 11.5846 10.5H22.418C22.7771 10.5 23.1216 10.6652 23.3755 10.9593C23.6295 11.2533 23.7721 11.6522 23.7721 12.0681V20.8492" fill="#FEC533"/>
<path d="M10.2305 20.8492V12.0681C10.2305 11.6522 10.3731 11.2533 10.6271 10.9593C10.8811 10.6652 11.2255 10.5 11.5846 10.5H22.418C22.7771 10.5 23.1216 10.6652 23.3755 10.9593C23.6295 11.2533 23.7721 11.6522 23.7721 12.0681V20.8492" stroke="#FEC533" stroke-width="1.2" stroke-miterlimit="10" stroke-linecap="square"/>
<path d="M8.875 21.3333V21.0625H25.125V21.3333C25.125 21.908 24.8967 22.4591 24.4904 22.8654C24.0841 23.2717 23.533 23.5 22.9583 23.5H11.0417C10.467 23.5 9.91593 23.2717 9.5096 22.8654C9.10327 22.4591 8.875 21.908 8.875 21.3333Z" fill="#FEC533" stroke="#FEC533" stroke-width="1.2" stroke-miterlimit="10" stroke-linecap="square"/>
<path d="M8.23047 18.8492L8.23047 8.5H21.7721V18.8492" stroke="#212121" stroke-width="1.2" stroke-miterlimit="10" stroke-linecap="square"/>
<path d="M6.875 19.3333V19.0625H23.125V19.3333C23.125 19.908 22.8967 20.4591 22.4904 20.8654C22.0841 21.2717 21.533 21.5 20.9583 21.5H9.04167C8.46703 21.5 7.91593 21.2717 7.5096 20.8654C7.10327 20.4591 6.875 19.908 6.875 19.3333Z" stroke="#212121" stroke-width="1.2" stroke-miterlimit="10" stroke-linecap="square"/>
<path d="M15 10.3984V17.4401" stroke="#212121" stroke-width="1.2" stroke-miterlimit="10" stroke-linecap="square"/>
<path d="M16.6237 11.5899C15.835 11.1566 13.3507 10.8316 13.3507 12.3263C13.3507 14.1138 16.5053 13.483 16.5053 15.0604C16.5053 16.6377 14.4549 16.5193 13.0352 16.0064" stroke="#212121" stroke-width="1.2" stroke-miterlimit="10" stroke-linecap="square"/>
</svg>
