<svg width="16" height="17" viewBox="0 0 16 17" fill="none" xmlns="http://www.w3.org/2000/svg">
<path d="M2 13.8336L1.43079 13.6438L1.09918 14.6387L2.12486 14.4204L2 13.8336ZM2.86667 11.2336L3.43588 11.4233C3.49486 11.2463 3.46819 11.052 3.36371 10.8975L2.86667 11.2336ZM5.13333 13.1669L5.39537 12.6271C5.27524 12.5688 5.13909 12.5522 5.00847 12.58L5.13333 13.1669ZM2.56921 14.0233L3.43588 11.4233L2.29746 11.0438L1.43079 13.6438L2.56921 14.0233ZM3.36371 10.8975C2.00959 8.89476 2.51053 6.29918 4.61369 4.80711L3.91934 3.82839C1.3213 5.67156 0.625238 8.98972 2.36962 11.5696L3.36371 10.8975ZM4.61369 4.80711C6.74356 3.29607 9.81627 3.42448 11.7742 5.09444L12.5529 4.18144C10.1707 2.14957 6.49065 2.00419 3.91934 3.82839L4.61369 4.80711ZM11.7742 5.09444C13.7037 6.74021 13.9484 9.36155 12.3863 11.2567L13.3122 12.0199C15.3051 9.60221 14.9634 6.2375 12.5529 4.18144L11.7742 5.09444ZM12.3863 11.2567C10.7972 13.1845 7.8034 13.7962 5.39537 12.6271L4.87129 13.7067C7.74221 15.1004 11.3463 14.405 13.3122 12.0199L12.3863 11.2567ZM5.00847 12.58L1.87514 13.2467L2.12486 14.4204L5.2582 13.7538L5.00847 12.58Z" fill="#808084"/>
<path d="M8.00033 8.49992V8.50659" stroke="#808084" stroke-width="1.2" stroke-linecap="round" stroke-linejoin="round"/>
<path d="M5.33333 8.49992V8.50659" stroke="#808084" stroke-width="1.2" stroke-linecap="round" stroke-linejoin="round"/>
<path d="M10.6663 8.49992V8.50659" stroke="#808084" stroke-width="1.2" stroke-linecap="round" stroke-linejoin="round"/>
</svg>
