<svg width="32" height="32" viewBox="0 0 32 32" fill="none" xmlns="http://www.w3.org/2000/svg">
<path fill-rule="evenodd" clip-rule="evenodd" d="M31 16C31 24.2843 24.2843 31 16 31C12.9985 31 10.2029 30.1184 7.858 28.6001L7.13585 29.3222C9.67333 31.0139 12.7215 32 16 32C24.8366 32 32 24.8366 32 16C32 12.7215 31.0139 9.67333 29.3222 7.13585L28.6001 7.858C30.1184 10.2029 31 12.9985 31 16ZM3.58279 26.091L4.29389 25.3799C2.23293 22.8112 1 19.5496 1 16C1 7.71573 7.71573 1 16 1C19.5496 1 22.8112 2.23293 25.3799 4.29389L26.091 3.58279C23.338 1.34279 19.8258 0 16 0C7.16344 0 0 7.16344 0 16C0 19.8258 1.34279 23.338 3.58279 26.091Z" fill="#FEC533"/>
<path d="M9.81445 20V23.272H25.1853V14H21.4212V16H17.5785V18H13.7358V20H9.81445Z" fill="#FEC533" stroke="#FEC533" stroke-miterlimit="10" stroke-linecap="square"/>
<path d="M7.81445 18V21.272H23.2916V12H19.4212V14H15.5785V16H11.7358V18H7.81445Z" stroke="#02020A" stroke-width="1.2" stroke-miterlimit="10" stroke-linecap="square"/>
<path d="M13.3984 11V16" stroke="black"/>
<path d="M17.5 9V14" stroke="black"/>
<path d="M9.55859 13.5V18.5" stroke="black"/>
<path d="M6.81445 15.0703L19.1858 7.92773" stroke="black"/>
</svg>
