<svg width="24" height="24" viewBox="0 0 24 24" fill="none" xmlns="http://www.w3.org/2000/svg">
<path d="M4 7H20" stroke="#808084" stroke-width="1.2" stroke-linecap="square"/>
<path d="M9.4 17V17.6H10.6V17H9.4ZM9.4 11V17H10.6V11H9.4Z" fill="#808084"/>
<path d="M13.4 17V17.6H14.6V17H13.4ZM13.4 11V17H14.6V11H13.4Z" fill="#808084"/>
<path d="M17.1506 21V21.6H17.6929L17.7475 21.0605L17.1506 21ZM19.1572 7.14445L19.2177 6.54751L18.0238 6.42657L17.9633 7.02352L19.1572 7.14445ZM6.85108 21L6.25413 21.0605L6.30879 21.6H6.85108V21ZM6.03836 7.02352L5.97789 6.42657L4.784 6.54751L4.84447 7.14445L6.03836 7.02352ZM17.7475 21.0605L19.1572 7.14445L17.9633 7.02352L16.5537 20.9395L17.7475 21.0605ZM12.0008 21.6H17.1506V20.4H12.0008V21.6ZM7.44802 20.9395L6.03836 7.02352L4.84447 7.14445L6.25413 21.0605L7.44802 20.9395ZM12.0008 20.4H6.85108V21.6H12.0008V20.4Z" fill="#808084"/>
<path d="M8.4 7C8.4 7.33137 8.66863 7.6 9 7.6C9.33137 7.6 9.6 7.33137 9.6 7H8.4ZM14.4 7V7.6H15.6V7H14.4ZM9.6 7V4H8.4V7H9.6ZM9.6 4C9.6 3.77909 9.77909 3.6 10 3.6V2.4C9.11634 2.4 8.4 3.11634 8.4 4H9.6ZM10 3.6H14V2.4H10V3.6ZM14 3.6C14.2209 3.6 14.4 3.77909 14.4 4H15.6C15.6 3.11634 14.8837 2.4 14 2.4V3.6ZM14.4 4V7H15.6V4H14.4Z" fill="#808084"/>
</svg>
