<svg width="42" height="14" viewBox="0 0 42 14" fill="none" xmlns="http://www.w3.org/2000/svg">
	<path d="M17.877 13.1554H14.512L16.6151 0.230943H19.9803L17.877 13.1554ZM11.6813 0.230943L8.47331 9.12052L8.09371 7.20625L8.09405 7.20694L6.96181 1.39465C6.96181 1.39465 6.8249 0.230943 5.36561 0.230943H0.0622301L0 0.449785C0 0.449785 1.62178 0.78721 3.5198 1.92706L6.44323 13.1558H9.9492L15.3027 0.230943H11.6813ZM38.148 13.1554H41.2378L38.5439 0.230597H35.839C34.5899 0.230597 34.2856 1.19378 34.2856 1.19378L29.2671 13.1554H32.7748L33.4763 11.2356H37.7539L38.148 13.1554ZM34.4454 8.58361L36.2134 3.74694L37.208 8.58361H34.4454ZM29.5302 3.33899L30.0104 0.563527C30.0104 0.563527 28.5287 0 26.984 0C25.3141 0 21.3487 0.729821 21.3487 4.27867C21.3487 7.61766 26.0028 7.65915 26.0028 9.413C26.0028 11.1668 21.8282 10.8526 20.4505 9.74662L19.9503 12.6486C19.9503 12.6486 21.4528 13.3784 23.7484 13.3784C26.0446 13.3784 29.5088 12.1895 29.5088 8.95353C29.5088 5.5931 24.8128 5.28023 24.8128 3.8192C24.8132 2.35783 28.0903 2.54556 29.5302 3.33899Z" fill="#2566AF"/> <path d="M8.09801 8.01896L6.96576 2.20667C6.96576 2.20667 6.82885 1.04297 5.36955 1.04297H0.0661368L0.00390625 1.26181C0.00390625 1.26181 2.55293 1.79007 4.9979 3.76934C7.33569 5.66113 8.09801 8.01896 8.09801 8.01896Z" fill="#E6A540"/>
</svg>
