<svg width="79" height="16" viewBox="0 0 79 16" fill="none" xmlns="http://www.w3.org/2000/svg">
	<g clip-path="url(#clip0_768_7714)"> <path d="M4.95 1.54842H4.215C3.105 1.54842 2.025 2.28342 2.025 4.42842C2.025 6.49842 3.015 7.15842 4.215 7.15842H4.95V1.54842ZM3.795 8.31342L1.605 13.2334H0L2.415 7.96842C1.275 7.39842 0.525 6.34842 0.525 4.42842C0.525 1.72842 2.235 0.378418 4.26 0.378418H6.33V13.2334H4.95V8.31342H3.795Z" fill="#FF0000"/> <path d="M33.2428 8.70552C33.2428 5.87053 34.3378 4.04053 36.4678 4.04053C37.2778 4.04053 37.7428 4.25053 38.1478 4.50553L37.9528 5.84053C37.5778 5.51053 37.0378 5.21053 36.4528 5.21053C35.4478 5.21053 34.7278 6.35053 34.7278 8.63052C34.7278 10.8955 35.2678 12.1855 36.4078 12.1855C37.0978 12.1855 37.6078 11.9155 37.9378 11.6305L38.2678 12.6805C37.7878 13.1005 37.2028 13.3705 36.3778 13.3705C34.4128 13.3705 33.2428 11.7955 33.2428 8.70552ZM29.1478 8.72052V13.2355H27.7378V4.17553H29.1478V8.36052L31.3228 4.17553H32.7478L30.4978 8.43552L33.0628 13.2355H31.5328L29.1478 8.72052ZM22.5478 7.88052H24.8728C24.8728 6.33553 24.6178 5.19553 23.8078 5.19553C22.9378 5.19553 22.6378 6.26053 22.5478 7.88052ZM24.0928 13.3705C22.2178 13.3705 21.0778 11.8855 21.0778 9.09552C21.0778 6.18553 21.8878 4.05553 23.8078 4.05553C25.3228 4.05553 26.3128 5.19553 26.3128 8.27052V9.05052H22.5328C22.5328 11.1055 23.1028 12.1855 24.2278 12.1855C25.0228 12.1855 25.6528 11.8255 26.0128 11.5705L26.3428 12.6505C25.7428 13.0855 24.9928 13.3705 24.0928 13.3705ZM18.1228 5.31553H16.5628V5.48053C16.5628 7.38553 16.4728 10.1755 15.7228 12.0955H18.1378V5.31553H18.1228ZM20.2228 15.0205H18.9628V13.2355H15.0778V15.0205H13.8178V12.0955H14.3728C15.1978 10.1755 15.2878 7.37053 15.2878 4.95553V4.17553H19.5028V12.0955H20.2228V15.0205ZM13.0078 4.17553V13.2355H11.6278V9.17052H9.54281V13.2355H8.13281V4.17553H9.54281V8.03052H11.6278V4.17553H13.0078Z" fill="white"/> <path d="M46.8264 1.11342H44.0364C43.9764 4.36842 43.8864 6.84342 43.7514 8.70342C43.5864 10.6234 43.3014 11.8984 42.8214 12.4984H46.8264V1.11342ZM47.7714 13.2334H42.2664L42.1464 15.3784H41.4414V12.4984H41.8164C42.4464 11.9734 42.7464 10.5334 42.9264 8.70342C43.1064 6.79842 43.1664 3.94842 43.2114 0.378418H47.7114V12.4984H48.5964V15.3784H47.8914L47.7714 13.2334Z" fill="white"/> <path d="M50.3517 8.18256H53.6368C53.7868 5.76756 53.0668 4.68756 52.1368 4.68756C51.1917 4.70256 50.4267 5.91756 50.3517 8.18256ZM52.3318 12.6826C53.5318 12.6826 54.1618 11.7076 54.1618 11.7076L54.4318 12.3976C54.4318 12.3976 53.7418 13.4176 52.3168 13.4176C50.3967 13.4176 49.5117 11.6776 49.5117 8.70756C49.5117 5.73756 50.6217 3.99756 52.1518 3.99756C53.7118 3.99756 54.7168 5.63256 54.4318 8.85756H50.3367C50.3667 11.3326 51.0117 12.6826 52.3318 12.6826Z" fill="white"/> <path d="M59.9691 8.87029H56.8791V13.2353H56.0391V4.17529H56.8791V8.18029H59.9691V4.17529H60.8241V13.2353H59.9691V8.87029Z" fill="white"/> <path d="M63.6519 8.21029V12.5753H64.1919C65.4669 12.5753 66.3369 11.9453 66.3369 10.3853C66.3369 8.85529 65.5869 8.21029 64.2819 8.21029H63.6519ZM62.8119 4.17529H63.6519V7.53529H64.3119C66.0369 7.53529 67.1469 8.46529 67.1469 10.3553C67.1469 12.2753 65.9619 13.2353 64.2519 13.2353H62.7969L62.8119 4.17529Z" fill="white"/> <path d="M69.4539 4.88029V13.2353H68.6289V4.17529H72.4689V4.88029H69.4539Z" fill="white"/> <path d="M77.9838 6.92029C77.9838 6.45529 78.0138 6.05029 78.0588 5.67529H77.9988C77.8788 6.06529 77.7137 6.45529 77.5187 6.84529L74.5638 13.2353H73.8438V4.17529H74.6388V10.4753C74.6388 10.9553 74.6088 11.3603 74.5638 11.7503H74.6238C74.7438 11.3303 74.9238 10.9403 75.1038 10.5503L78.0588 4.19029H78.7937V13.2503H77.9838C77.9838 13.2353 77.9838 6.92029 77.9838 6.92029Z" fill="white"/> </g> <defs> <clipPath id="clip0_768_7714"> <rect width="78.795" height="15" fill="white" transform="translate(0 0.378418)"/> </clipPath> </defs>
</svg>