<svg width="24" height="24" viewBox="0 0 24 24" fill="none" xmlns="http://www.w3.org/2000/svg">
<path fill-rule="evenodd" clip-rule="evenodd" d="M0 12C0 5.37258 5.37258 0 12 0C18.6274 0 24 5.37258 24 12C24 18.6274 18.6274 24 12 24C5.37258 24 0 18.6274 0 12Z" fill="#FF0000"/>
<path fill-rule="evenodd" clip-rule="evenodd" d="M18.1325 8.83661C17.9853 8.27111 17.5516 7.8258 17.0008 7.67466C16.0027 7.4 12 7.4 12 7.4C12 7.4 7.99735 7.4 6.99916 7.67466C6.4484 7.8258 6.01465 8.27111 5.86745 8.83661C5.60004 9.86152 5.60004 12 5.60004 12C5.60004 12 5.60004 14.1384 5.86745 15.1634C6.01465 15.7289 6.4484 16.1742 6.99916 16.3254C7.99735 16.6 12 16.6 12 16.6C12 16.6 16.0027 16.6 17.0008 16.3254C17.5516 16.1742 17.9853 15.7289 18.1325 15.1634C18.4 14.1384 18.4 12 18.4 12C18.4 12 18.4 9.86152 18.1325 8.83661Z" fill="white"/>
<path fill-rule="evenodd" clip-rule="evenodd" d="M10.8 14V10L14 12.0001L10.8 14Z" fill="#FF0000"/>
</svg>
