<svg width="32" height="32" viewBox="0 0 32 32" fill="none" xmlns="http://www.w3.org/2000/svg">
<rect width="32" height="32" fill="#C879FF"/>
<path d="M22.75 14.2812V24.0156H9.25L9.25 14.2812" stroke="white" stroke-width="1.2" stroke-miterlimit="10" stroke-linecap="square"/>
<path d="M24.4375 11.3594H7.5625V14.1719H24.4375V11.3594Z" stroke="white" stroke-width="1.2" stroke-miterlimit="10" stroke-linecap="square"/>
<path d="M10.9375 9.67188C10.9375 9.22432 11.1153 8.7951 11.4318 8.47863C11.7482 8.16216 12.1774 7.98438 12.625 7.98438C15.1211 7.98438 16 11.3594 16 11.3594H12.625C12.1774 11.3594 11.7482 11.1816 11.4318 10.8651C11.1153 10.5487 10.9375 10.1194 10.9375 9.67188Z" stroke="white" stroke-width="1.2" stroke-miterlimit="10" stroke-linecap="square"/>
<path d="M21.0625 9.67188C21.0625 9.22432 20.8847 8.7951 20.5682 8.47863C20.2518 8.16216 19.8226 7.98438 19.375 7.98438C16.8789 7.98438 16 11.3594 16 11.3594H19.375C19.8226 11.3594 20.2518 11.1816 20.5682 10.8651C20.8847 10.5487 21.0625 10.1194 21.0625 9.67188V9.67188Z" stroke="white" stroke-width="1.2" stroke-miterlimit="10" stroke-linecap="square"/>
<path d="M17.6875 11.3594V24.0156H14.3125V11.3594" stroke="white" stroke-width="1.2" stroke-miterlimit="10" stroke-linecap="square"/>
</svg>
