<svg width="16" height="17" viewBox="0 0 16 17" fill="none" xmlns="http://www.w3.org/2000/svg">
<path d="M6.72754 5V7.9697" stroke="#808084" stroke-width="1.2" stroke-miterlimit="10"/>
<path d="M10.7575 10.9395H5.03027" stroke="#808084" stroke-width="1.2" stroke-miterlimit="10" stroke-linecap="square"/>
<path d="M2.90945 10.9394H1.63672V7.9697L3.69587 5H9.66923L11.3943 7.9697H13.5155C13.9841 7.9697 14.364 7.9697 14.364 7.9697V10.9394H12.8791" stroke="#808084" stroke-width="1.2" stroke-miterlimit="10" stroke-linecap="square"/>
<path d="M3.96979 12.0001C4.55554 12.0001 5.03039 11.5253 5.03039 10.9395C5.03039 10.3538 4.55554 9.87891 3.96979 9.87891C3.38403 9.87891 2.90918 10.3538 2.90918 10.9395C2.90918 11.5253 3.38403 12.0001 3.96979 12.0001Z" stroke="#808084" stroke-width="1.2" stroke-miterlimit="10" stroke-linecap="square"/>
<path d="M11.8184 12.0001C12.4042 12.0001 12.879 11.5253 12.879 10.9395C12.879 10.3538 12.4042 9.87891 11.8184 9.87891C11.2327 9.87891 10.7578 10.3538 10.7578 10.9395C10.7578 11.5253 11.2327 12.0001 11.8184 12.0001Z" stroke="#808084" stroke-width="1.2" stroke-miterlimit="10" stroke-linecap="square"/>
<path d="M1.63672 7.96973H11.3943" stroke="#808084" stroke-width="1.2" stroke-miterlimit="10"/>
</svg>
