<svg width="16" height="17" viewBox="0 0 16 17" fill="none" xmlns="http://www.w3.org/2000/svg">
<ellipse cx="4.66634" cy="11.8333" rx="1.33333" ry="1.33333" stroke="#808084" stroke-width="1.2" stroke-linecap="round"/>
<circle cx="11.3333" cy="11.8333" r="1.33333" stroke="#808084" stroke-width="1.2" stroke-linecap="round"/>
<path d="M3.33333 12.433C3.6647 12.433 3.93333 12.1644 3.93333 11.833C3.93333 11.5016 3.6647 11.233 3.33333 11.233V12.433ZM2 11.833H1.4V12.433H2V11.833ZM8.66667 3.83301H9.26667V3.23301H8.66667V3.83301ZM8.06667 11.833C8.06667 12.1644 8.3353 12.433 8.66667 12.433C8.99804 12.433 9.26667 12.1644 9.26667 11.833H8.06667ZM6 11.233C5.66863 11.233 5.4 11.5016 5.4 11.833C5.4 12.1644 5.66863 12.433 6 12.433V11.233ZM10 12.433C10.3314 12.433 10.6 12.1644 10.6 11.833C10.6 11.5016 10.3314 11.233 10 11.233V12.433ZM12.6667 11.233C12.3353 11.233 12.0667 11.5016 12.0667 11.833C12.0667 12.1644 12.3353 12.433 12.6667 12.433V11.233ZM14 11.833V12.433H14.6V11.833H14ZM14 7.83301H14.6V7.23301H14V7.83301ZM8.66667 7.23301C8.3353 7.23301 8.06667 7.50164 8.06667 7.83301C8.06667 8.16438 8.3353 8.43301 8.66667 8.43301V7.23301ZM8.66667 3.89967C8.3353 3.89967 8.06667 4.1683 8.06667 4.49967C8.06667 4.83105 8.3353 5.09967 8.66667 5.09967V3.89967ZM12 4.49967L12.5145 4.19098L12.3397 3.89967H12V4.49967ZM13.4855 8.14171C13.656 8.42585 14.0245 8.51799 14.3087 8.3475C14.5928 8.17701 14.685 7.80846 14.5145 7.52431L13.4855 8.14171ZM3.33333 11.233H2V12.433H3.33333V11.233ZM2.6 11.833V4.49967H1.4V11.833H2.6ZM2.6 4.49967C2.6 4.46286 2.62985 4.43301 2.66667 4.43301V3.23301C1.96711 3.23301 1.4 3.80011 1.4 4.49967H2.6ZM2.66667 4.43301H8.66667V3.23301H2.66667V4.43301ZM8.06667 3.83301V11.833H9.26667V3.83301H8.06667ZM6 12.433H10V11.233H6V12.433ZM12.6667 12.433H14V11.233H12.6667V12.433ZM14.6 11.833V7.83301H13.4V11.833H14.6ZM14 7.23301H8.66667V8.43301H14V7.23301ZM8.66667 5.09967H12V3.89967H8.66667V5.09967ZM11.4855 4.80837L13.4855 8.14171L14.5145 7.52431L12.5145 4.19098L11.4855 4.80837Z" fill="#808084"/>
<path d="M2 5.36548V3.83301H4.22143" stroke="#02020A" stroke-width="1.2" stroke-linecap="round"/>
</svg>
