<svg width="31" height="30" viewBox="0 0 31 30" fill="none" xmlns="http://www.w3.org/2000/svg">
<path d="M3 8H6.33333V21.3333H18L21.3333 13H6.33333" stroke="#02020A" stroke-width="1.2" stroke-linecap="square"/>
<path d="M8.36797 25.2672C8.36797 25.9852 7.78594 26.5672 7.06797 26.5672C6.35 26.5672 5.76797 25.9852 5.76797 25.2672C5.76797 24.5492 6.35 23.9672 7.06797 23.9672C7.78594 23.9672 8.36797 24.5492 8.36797 25.2672Z" stroke="#02020A" stroke-width="1.2" stroke-linecap="square"/>
<path d="M19.8992 25.2672C19.8992 25.9852 19.3172 26.5672 18.5992 26.5672C17.8812 26.5672 17.2992 25.9852 17.2992 25.2672C17.2992 24.5492 17.8812 23.9672 18.5992 23.9672C19.3172 23.9672 19.8992 24.5492 19.8992 25.2672Z" stroke="#02020A" stroke-width="1.2" stroke-linecap="square"/>
</svg>
