<svg width="51" height="51" viewBox="0 0 51 51" fill="none" xmlns="http://www.w3.org/2000/svg">
<path fill-rule="evenodd" clip-rule="evenodd" d="M50 25.5C50 39.031 39.031 50 25.5 50C20.5514 50 15.9455 48.5329 12.0935 46.0098L11.3718 46.7316C15.4161 49.4282 20.2745 51 25.5 51C39.5833 51 51 39.5833 51 25.5C51 20.2745 49.4282 15.4161 46.7316 11.3718L46.0098 12.0935C48.5329 15.9455 50 20.5514 50 25.5ZM5.70933 41.5817L6.42034 40.8707C3.02986 36.6674 1 31.3207 1 25.5C1 11.969 11.969 1 25.5 1C31.3207 1 36.6674 3.02986 40.8707 6.42034L41.5817 5.70933C37.1942 2.13978 31.597 0 25.5 0C11.4167 0 0 11.4167 0 25.5C0 31.597 2.13978 37.1942 5.70933 41.5817Z" fill="#FEC533"/>
<path d="M24.3281 23.9922L33.8179 21.9751L35.5227 29.9952L26.0329 32.0123L24.3281 23.9922Z" fill="#FEC533"/>
<path d="M24.6959 30.7555L23.5439 25.336L33.239 23.2752L34.7904 30.5741L34.9132 31.1517" stroke="#02020A" stroke-width="1.2"/>
<path d="M32.1639 23.5042L30.5611 15.9636L23.0205 17.5664L24.1938 23.0865" stroke="#02020A" stroke-width="1.2"/>
<rect x="25.5322" y="17.0313" width="2.56967" height="2.93677" transform="rotate(-12 25.5322 17.0313)" stroke="#02020A" stroke-width="1.2"/>
<rect x="27.1338" y="24.5723" width="2.56967" height="2.93677" transform="rotate(-12 27.1338 24.5723)" stroke="#02020A" stroke-width="1.2"/>
<rect x="19.6055" y="21.8711" width="1.37144" height="11.1986" transform="rotate(-12 19.6055 21.8711)" fill="#02020A"/>
<rect x="20.9336" y="21.5859" width="1.58466" height="4.11431" transform="rotate(78 20.9336 21.5859)" fill="#02020A"/>
<rect x="24.6094" y="34.332" width="1.37144" height="11.8118" transform="rotate(-102 24.6094 34.332)" fill="#02020A"/>
<path fill-rule="evenodd" clip-rule="evenodd" d="M23.977 36.3101C25.1043 35.7357 25.5526 34.3561 24.9782 33.2287C24.4037 32.1013 23.0241 31.6531 21.8968 32.2275C20.7694 32.8019 20.3211 34.1815 20.8956 35.3089C21.47 36.4363 22.8496 36.8845 23.977 36.3101ZM23.4364 35.2487C23.9671 34.9783 24.1782 34.3288 23.9077 33.7981C23.6373 33.2674 22.9878 33.0563 22.4571 33.3268C21.9263 33.5972 21.7153 34.2467 21.9857 34.7774C22.2562 35.3081 22.9057 35.5192 23.4364 35.2487Z" fill="#02020A"/>
<path d="M24.4436 33.5011C24.8676 34.3332 24.5367 35.3515 23.7046 35.7755L24.2494 36.8447C25.672 36.1198 26.2376 34.3789 25.5128 32.9563L24.4436 33.5011ZM22.1692 32.7621C23.0013 32.3381 24.0196 32.669 24.4436 33.5011L25.5128 32.9563C24.7879 31.5337 23.047 30.968 21.6244 31.6929L22.1692 32.7621ZM21.4302 35.0365C21.0062 34.2044 21.337 33.1861 22.1692 32.7621L21.6244 31.6929C20.2017 32.4177 19.6361 34.1586 20.361 35.5813L21.4302 35.0365ZM23.7046 35.7755C22.8724 36.1995 21.8542 35.8686 21.4302 35.0365L20.361 35.5813C21.0858 37.0039 22.8267 37.5696 24.2494 36.8447L23.7046 35.7755ZM23.3731 34.0705C23.4931 34.306 23.3995 34.5942 23.164 34.7141L23.7088 35.7834C24.5348 35.3625 24.8632 34.3517 24.4423 33.5257L23.3731 34.0705ZM22.7295 33.8614C22.965 33.7414 23.2531 33.835 23.3731 34.0705L24.4423 33.5257C24.0215 32.6997 23.0107 32.3713 22.1847 32.7922L22.7295 33.8614ZM22.5203 34.505C22.4004 34.2695 22.494 33.9813 22.7295 33.8614L22.1847 32.7922C21.3587 33.213 21.0303 34.2238 21.4511 35.0498L22.5203 34.505ZM23.164 34.7141C22.9285 34.8341 22.6403 34.7405 22.5203 34.505L21.4511 35.0498C21.872 35.8758 22.8828 36.2042 23.7088 35.7834L23.164 34.7141Z" fill="#02020A"/>
</svg>
