<svg width="10" height="10" viewBox="0 0 10 10" fill="none" xmlns="http://www.w3.org/2000/svg">
<path fill-rule="evenodd" clip-rule="evenodd" d="M8.5 5C8.5 6.933 6.933 8.5 5 8.5C4.64868 8.5 4.30944 8.44824 3.98951 8.35192L3.21106 9.13037C3.75935 9.36818 4.36428 9.5 5 9.5C7.48528 9.5 9.5 7.48528 9.5 5C9.5 4.36428 9.36818 3.75935 9.13037 3.21106L8.35192 3.98951C8.44824 4.30944 8.5 4.64868 8.5 5ZM1.06858 7.19118L1.81236 6.4474C1.61174 6.00628 1.5 5.51619 1.5 5C1.5 3.067 3.067 1.5 5 1.5C5.51619 1.5 6.00628 1.61174 6.4474 1.81236L7.19118 1.06858C6.54275 0.706406 5.79548 0.5 5 0.5C2.51472 0.5 0.5 2.51472 0.5 5C0.5 5.79548 0.706406 6.54275 1.06858 7.19118Z" fill="#FEC533"/>
<path fill-rule="evenodd" clip-rule="evenodd" d="M3.20557 9.13081C3.75475 9.36953 4.36085 9.50189 4.99787 9.50189C7.48315 9.50189 9.49787 7.48718 9.49787 5.00189C9.49787 4.36488 9.3655 3.75878 9.12678 3.20959L8.34867 3.98771C8.4457 4.30872 8.49787 4.64922 8.49787 5.00189C8.49787 6.93489 6.93086 8.50189 4.99787 8.50189C4.64519 8.50189 4.30469 8.44973 3.98368 8.3527L3.20557 9.13081Z" fill="#0075C9"/>
</svg>
