<svg width="15" height="15" viewBox="0 0 15 15" fill="none" xmlns="http://www.w3.org/2000/svg">
<path d="M1 6.9H0.4V8.1H1V6.9ZM13.8571 8.1H14.4571V6.9H13.8571V8.1ZM1 8.1H13.8571V6.9H1V8.1Z" fill="#808084"/>
<path d="M1.25742 4.07143V4.67143H2.45742V4.07143H1.25742ZM1.85742 1.5V0.9H1.25742V1.5H1.85742ZM4.42885 2.1H5.02885V0.9H4.42885V2.1ZM2.45742 4.07143V1.5H1.25742V4.07143H2.45742ZM1.85742 2.1H4.42885V0.9H1.85742V2.1Z" fill="#808084"/>
<path d="M12.4001 4.07143V4.67143H13.6001V4.07143H12.4001ZM13.0001 1.5H13.6001V0.9H13.0001V1.5ZM10.4287 0.9H9.82871V2.1H10.4287V0.9ZM13.6001 4.07143V1.5H12.4001V4.07143H13.6001ZM13.0001 0.9H10.4287V2.1H13.0001V0.9Z" fill="#808084"/>
<path d="M2.45742 10.9287V10.3287H1.25742V10.9287H2.45742ZM1.85742 13.5H1.25742V14.1L1.85739 14.1L1.85742 13.5ZM4.42882 14.1001L5.02882 14.1002L5.02888 12.9002L4.42888 12.9001L4.42882 14.1001ZM1.25742 10.9287V13.5H2.45742V10.9287H1.25742ZM1.85739 14.1L4.42882 14.1001L4.42888 12.9001L1.85745 12.9L1.85739 14.1Z" fill="#808084"/>
<path d="M13.6001 10.9287V10.3287H12.4001V10.9287H13.6001ZM13.0001 13.5001V14.1001H13.6001V13.5001H13.0001ZM10.4287 12.9001H9.82871V14.1001H10.4287V12.9001ZM12.4001 10.9287V13.5001H13.6001V10.9287H12.4001ZM13.0001 12.9001H10.4287V14.1001H13.0001V12.9001Z" fill="#808084"/>
</svg>
