<svg width="32" height="32" viewBox="0 0 32 32" fill="none" xmlns="http://www.w3.org/2000/svg">
<path fill-rule="evenodd" clip-rule="evenodd" d="M31 16C31 24.2843 24.2843 31 16 31C12.9985 31 10.2029 30.1184 7.858 28.6001L7.13585 29.3222C9.67333 31.0139 12.7215 32 16 32C24.8366 32 32 24.8366 32 16C32 12.7215 31.0139 9.67333 29.3222 7.13585L28.6001 7.858C30.1184 10.2029 31 12.9985 31 16ZM3.58279 26.091L4.29389 25.3799C2.23293 22.8112 1 19.5496 1 16C1 7.71573 7.71573 1 16 1C19.5496 1 22.8112 2.23293 25.3799 4.29389L26.091 3.58279C23.338 1.34279 19.8258 0 16 0C7.16344 0 0 7.16344 0 16C0 19.8258 1.34279 23.338 3.58279 26.091Z" fill="#FEC533"/>
<path d="M17.0469 15.3789V18.3486" stroke="#02020A" stroke-width="1.2" stroke-miterlimit="10"/>
<rect x="7.43359" y="12.9219" width="9" height="5.69956" fill="#FEC533"/>
<rect x="6.82031" y="9.62109" width="10.2266" height="2.29562" fill="#FEC533"/>
<path d="M21.0769 21.3164H15.3496" stroke="#02020A" stroke-width="1.2" stroke-miterlimit="10" stroke-linecap="square"/>
<path d="M13.2278 21.3184H11.9551V18.3487L13.92 15.3789L19.9263 15.379L21.7127 18.3487H24.6824C24.6824 18.3487 24.6824 18.7286 24.6824 19.1972V21.3184H23.1975" stroke="#02020A" stroke-width="1.2" stroke-miterlimit="10" stroke-linecap="square"/>
<path d="M14.2891 22.379C14.8749 22.379 15.3497 21.9042 15.3497 21.3184C15.3497 20.7327 14.8749 20.2578 14.2891 20.2578C13.7034 20.2578 13.2285 20.7327 13.2285 21.3184C13.2285 21.9042 13.7034 22.379 14.2891 22.379Z" stroke="#02020A" stroke-width="1.2" stroke-miterlimit="10" stroke-linecap="square"/>
<path d="M22.1368 22.379C22.7225 22.379 23.1974 21.9042 23.1974 21.3184C23.1974 20.7327 22.7225 20.2578 22.1368 20.2578C21.551 20.2578 21.0762 20.7327 21.0762 21.3184C21.0762 21.9042 21.551 22.379 22.1368 22.379Z" stroke="#02020A" stroke-width="1.2" stroke-miterlimit="10" stroke-linecap="square"/>
<path d="M11.9551 18.3477H21.7127" stroke="#02020A" stroke-width="1.2" stroke-miterlimit="10"/>
</svg>
