<svg width="24" height="24" viewBox="0 0 24 24" fill="none" xmlns="http://www.w3.org/2000/svg">
<path d="M21 8.9146C20.9985 7.85335 20.6469 6.82225 19.9997 5.98119C19.3524 5.14014 18.4458 4.53614 17.4203 4.26285C16.3949 3.98957 15.3079 4.06227 14.328 4.46969C13.348 4.8771 12.5299 5.59647 12.0005 6.51622C11.6537 5.90975 11.1791 5.38595 10.6097 4.98113C10.0404 4.57631 9.38976 4.30017 8.70302 4.17183C8.01629 4.0435 7.30986 4.06604 6.63271 4.23791C5.95556 4.40978 5.32388 4.72685 4.78148 5.16716C4.23907 5.60746 3.7989 6.16045 3.49149 6.78781C3.18409 7.41516 3.01679 8.10186 3.0012 8.80031C2.98561 9.49876 3.12211 10.1922 3.40122 10.8327C3.68033 11.4731 4.09538 12.0452 4.61761 12.5093L12.0005 19.9114L19.3833 12.5093C19.8918 12.0586 20.2988 11.5051 20.5775 10.8855C20.8562 10.2658 21.0002 9.59405 21 8.9146Z" stroke="#02020A" stroke-width="1.2" stroke-miterlimit="10" stroke-linecap="square"/>
</svg>
