<svg width="50" height="50" viewBox="0 0 50 50" fill="none" xmlns="http://www.w3.org/2000/svg">
	<path fill-rule="evenodd" clip-rule="evenodd" d="M49 25C49 38.2548 38.2548 49 25 49C20.1548 49 15.6449 47.5642 11.8727 45.0949L11.1509 45.8167C15.1155 48.4596 19.8778 50 25 50C38.8071 50 50 38.8071 50 25C50 19.8778 48.4596 15.1155 45.8167 11.1509L45.0949 11.8727C47.5642 15.6449 49 20.1548 49 25ZM5.59892 40.7683L6.30993 40.0573C2.98852 35.9397 1 30.7021 1 25C1 11.7452 11.7452 1 25 1C30.7021 1 35.9397 2.98852 40.0573 6.30993L40.7683 5.59893C36.4665 2.09844 30.9783 0 25 0C11.1929 0 0 11.1929 0 25C0 30.9783 2.09844 36.4665 5.59892 40.7683Z" fill="#FEC533"/> <g clip-path="url(#clip0_415_5177)"> <rect x="13.5195" y="20.1719" width="19.4198" height="11.4388" fill="#FEC533"/> <path d="M34.4566 21.6973H15.9844" stroke="#02020A" stroke-miterlimit="10" stroke-linecap="square"/> <path d="M24.5608 33.1322H15.9844V17.2988H34.4566V23.9012" stroke="#02020A" stroke-miterlimit="10" stroke-linecap="square"/> <path d="M20.3828 15.5391V19.0576" stroke="#02020A" stroke-miterlimit="10" stroke-linecap="square"/> <path d="M30.0586 15.5391V19.0576" stroke="#02020A" stroke-miterlimit="10" stroke-linecap="square"/> <path d="M29.7273 32.6968C31.8527 32.6968 33.5757 30.9738 33.5757 28.8484C33.5757 26.723 31.8527 25 29.7273 25C27.6019 25 25.8789 26.723 25.8789 28.8484C25.8789 30.9738 27.6019 32.6968 29.7273 32.6968Z" fill="#02020A" stroke="#02020A" stroke-miterlimit="10" stroke-linecap="round" stroke-linejoin="round"/> <path d="M29.7266 26.6484V28.8475H31.9256" stroke="white" stroke-miterlimit="10" stroke-linecap="round" stroke-linejoin="round"/> </g> <defs> <clipPath id="clip0_415_5177"> <rect width="21.1111" height="21.1111" fill="white" transform="translate(14.4453 14.4453)"/> </clipPath> </defs>
</svg>
