<svg width="90" height="90" viewBox="0 0 90 90" fill="none" xmlns="http://www.w3.org/2000/svg"> <path fill-rule="evenodd" clip-rule="evenodd" d="M89 45C89 69.3005 69.3005 89 45 89C36.057 89 27.7372 86.332 20.7931 81.7485L20.0715 82.47C27.2078 87.2272 35.7801 90 45 90C69.8528 90 90 69.8528 90 45C90 35.7801 87.2272 27.2078 82.47 20.0715L81.7485 20.7931C86.332 27.7372 89 36.057 89 45ZM10.0781 73.3829L10.789 72.6719C4.66724 65.113 1 55.4847 1 45C1 20.6995 20.6995 1 45 1C55.4847 1 65.113 4.66724 72.6719 10.789L73.3829 10.0781C65.6398 3.77719 55.761 0 45 0C20.1472 0 0 20.1472 0 45C0 55.761 3.77719 65.6398 10.0781 73.3829Z" fill="#FEC533"/> <g clip-path="url(#clip0_415_5126)"> <path d="M57.2901 52.1602H43.2188C43.2188 54.9744 45.43 57.1856 48.2442 57.1856V59.1958H52.2646V57.1856C55.0788 57.1856 57.2901 54.9744 57.2901 52.1602Z" fill="#FEC533"/> <path d="M55.2814 50.1509H45.2305V45.1254C45.2305 44.0198 46.1351 43.1152 47.2407 43.1152H53.2712C54.3768 43.1152 55.2814 44.0198 55.2814 45.1254V50.1509Z" fill="#FEC533"/> </g> <path fill-rule="evenodd" clip-rule="evenodd" d="M30.1523 59.1972V36.0801H31.1574V59.1972H30.1523Z" fill="white"/> <path d="M58.2969 28.0391V43.1155" stroke="white"/> <path fill-rule="evenodd" clip-rule="evenodd" d="M42.2135 59.1973L30.1523 59.1973L30.1523 58.1922L42.2135 58.1922L42.2135 59.1973Z" fill="white"/> <path d="M27.0042 31.8528L60.9273 28.3912L58.8504 25.622L55.3861 25.9755" stroke="white"/> <rect x="34.6719" y="37.584" width="4.02547" height="14.0764" stroke="white"/> <defs> <clipPath id="clip0_415_5126"> <rect width="16.0815" height="16.0815" fill="white" transform="translate(42.2148 43.1152)"/> </clipPath> </defs> </svg>