<svg width="91" height="90" viewBox="0 0 91 90" fill="none" xmlns="http://www.w3.org/2000/svg">
<path fill-rule="evenodd" clip-rule="evenodd" d="M89.1875 45C89.1875 69.3005 69.488 89 45.1875 89C36.2445 89 27.9247 86.332 20.9806 81.7485L20.259 82.47C27.3953 87.2272 35.9676 90 45.1875 90C70.0403 90 90.1875 69.8528 90.1875 45C90.1875 35.7801 87.4147 27.2078 82.6575 20.0715L81.936 20.7931C86.5195 27.7372 89.1875 36.057 89.1875 45ZM10.2656 73.3829L10.9765 72.6719C4.85474 65.113 1.1875 55.4847 1.1875 45C1.1875 20.6995 20.887 1 45.1875 1C55.6722 1 65.3005 4.66724 72.8594 10.789L73.5704 10.0781C65.8273 3.77719 55.9485 0 45.1875 0C20.3347 0 0.1875 20.1472 0.1875 45C0.1875 55.761 3.96469 65.6398 10.2656 73.3829Z" fill="#FEC533"/> <g clip-path="url(#clip0_415_5157)"> <path d="M43.1911 56.6202C43.1911 56.6202 32.5005 45.9296 32.5005 38.5798C32.4874 37.1722 32.7551 35.7762 33.2877 34.4733C33.8203 33.1703 34.6073 31.9866 35.6026 30.9913C36.598 29.996 37.7817 29.209 39.0846 28.6764C40.3875 28.1437 41.7836 27.8761 43.1911 27.8891C44.5986 27.8761 45.9946 28.1437 47.2976 28.6764C48.6005 29.209 49.7842 29.996 50.7795 30.9913C51.7749 31.9866 52.5618 33.1703 53.0945 34.4733C53.6271 35.7762 53.8947 37.1722 53.8817 38.5798C53.8542 39.7888 53.6285 40.9851 53.2136 42.121" stroke="white" stroke-miterlimit="10" stroke-linecap="square"/> <path d="M43.1885 41.9199C45.0336 41.9199 46.5293 40.4242 46.5293 38.5791C46.5293 36.734 45.0336 35.2383 43.1885 35.2383C41.3434 35.2383 39.8477 36.734 39.8477 38.5791C39.8477 40.4242 41.3434 41.9199 43.1885 41.9199Z" stroke="white" stroke-miterlimit="10" stroke-linecap="square"/> <path d="M56.4589 56.6211L52.4102 52.5723" stroke="#FEC533" stroke-width="3" stroke-miterlimit="10"/> <path d="M49.4267 53.8085C51.7572 53.8085 53.6464 51.9193 53.6464 49.5888C53.6464 47.2584 51.7572 45.3691 49.4267 45.3691C47.0962 45.3691 45.207 47.2584 45.207 49.5888C45.207 51.9193 47.0962 53.8085 49.4267 53.8085Z" fill="#FEC533" stroke="#FEC533" stroke-miterlimit="10" stroke-linecap="square"/> <path d="M29.8627 55.1562L26.1172 65.2211L36.404 61.2158L44.5254 65.2211L52.6468 61.2158L62.9336 65.2211L60.605 58.9637" stroke="white"/> </g> <defs> <clipPath id="clip0_415_5157"> <rect width="41" height="41" fill="white" transform="translate(24.0234 25.6641)"/> </clipPath> </defs>
</svg>
