<svg width="24" height="25" viewBox="0 0 24 25" fill="none" xmlns="http://www.w3.org/2000/svg">
<path d="M7 20.5V21.1H7.6V20.5H7ZM3 20.5H2.4V21.1H3V20.5ZM3 11.5V10.9H2.4V11.5H3ZM15 11.5H14.4V12.1H15V11.5ZM20 13.5L20.5883 13.6177L20.6 13.5594V13.5H20ZM19 18.5L19.5842 18.6369L19.5864 18.6273L19.5883 18.6177L19 18.5ZM17 20.5L17.0509 19.9022L17.0255 19.9H17V20.5ZM7.6 17.5V16.9H6.4V17.5H7.6ZM7.93416 19.6754L7.52092 20.1104L7.93416 19.6754ZM6.4 11.5V20.5H7.6V11.5H6.4ZM3 12.1H7V10.9H3V12.1ZM7 12.1C9.54051 12.1 11.6 10.0405 11.6 7.5H10.4C10.4 9.37777 8.87777 10.9 7 10.9V12.1ZM11.6 7.5V6.5H10.4V7.5H11.6ZM11.6 6.5C11.6 5.7268 12.2268 5.1 13 5.1V3.9C11.5641 3.9 10.4 5.06406 10.4 6.5H11.6ZM13 5.1C13.7732 5.1 14.4 5.7268 14.4 6.5H15.6C15.6 5.06406 14.4359 3.9 13 3.9V5.1ZM14.4 6.5V11.5H15.6V6.5H14.4ZM15 12.1H18V10.9H15V12.1ZM18 12.1C18.7732 12.1 19.4 12.7268 19.4 13.5H20.6C20.6 12.0641 19.4359 10.9 18 10.9V12.1ZM19.4117 13.3823L18.4117 18.3823L19.5883 18.6177L20.5883 13.6177L19.4117 13.3823ZM18.4158 18.3631C18.147 19.5097 17.4931 19.9398 17.0509 19.9022L16.9491 21.0978C18.2853 21.2115 19.2621 20.0108 19.5842 18.6369L18.4158 18.3631ZM17 19.9H10V21.1H17V19.9ZM3.6 20.5V11.5H2.4V20.5H3.6ZM7 19.9H3V21.1H7V19.9ZM10 19.9C9.35928 19.9 8.7783 19.6497 8.3474 19.2404L7.52092 20.1104C8.16593 20.7231 9.03959 21.1 10 21.1V19.9ZM8.3474 19.2404C7.88627 18.8023 7.6 18.1851 7.6 17.5H6.4C6.4 18.5275 6.83124 19.4552 7.52092 20.1104L8.3474 19.2404Z" fill="#4E4E54"/>
</svg>
