<svg width="24" height="19" viewBox="0 0 24 19" fill="none" xmlns="http://www.w3.org/2000/svg">
	<g clip-path="url(#clip0_768_7724)"> <path d="M22.6815 18.1343V18.1806H22.7247C22.7328 18.1807 22.7408 18.1787 22.7478 18.1747C22.7506 18.1727 22.7529 18.17 22.7544 18.1669C22.7559 18.1638 22.7567 18.1604 22.7565 18.157C22.7567 18.1536 22.7559 18.1503 22.7544 18.1472C22.7529 18.1442 22.7506 18.1416 22.7478 18.1397C22.7409 18.1356 22.7328 18.1335 22.7247 18.1338H22.6815V18.1343ZM22.7252 18.1016C22.7437 18.1004 22.762 18.1057 22.777 18.1166C22.783 18.1215 22.7878 18.1278 22.7909 18.1349C22.7941 18.142 22.7955 18.1498 22.7951 18.1576C22.7954 18.1642 22.7943 18.1709 22.7917 18.1771C22.7892 18.1833 22.7854 18.1889 22.7806 18.1935C22.769 18.2036 22.7545 18.2097 22.7392 18.2108L22.797 18.2767H22.7525L22.6992 18.2112H22.682V18.2767H22.6448V18.1017H22.7257L22.7252 18.1016ZM22.7136 18.3371C22.7331 18.3373 22.7525 18.3333 22.7704 18.3255C22.7877 18.3181 22.8034 18.3075 22.8167 18.2942C22.83 18.2809 22.8406 18.2652 22.848 18.2479C22.8632 18.2112 22.8632 18.17 22.848 18.1334C22.8405 18.1161 22.8299 18.1005 22.8167 18.0871C22.8034 18.0738 22.7876 18.0632 22.7704 18.0558C22.7524 18.0484 22.7331 18.0447 22.7136 18.0449C22.6938 18.0447 22.6741 18.0484 22.6557 18.0558C22.6381 18.0631 22.622 18.0737 22.6084 18.0871C22.588 18.1081 22.5741 18.1346 22.5686 18.1634C22.5631 18.1922 22.5662 18.222 22.5775 18.2491C22.5846 18.2664 22.5951 18.2822 22.6084 18.2953C22.622 18.3087 22.6381 18.3194 22.6557 18.3267C22.674 18.3345 22.6937 18.3384 22.7136 18.3383V18.3371ZM22.7136 18.0028C22.7644 18.0027 22.8133 18.0227 22.8495 18.0583C22.867 18.0754 22.8809 18.0958 22.8905 18.1183C22.9004 18.1415 22.9054 18.1664 22.9054 18.1915C22.9054 18.2167 22.9004 18.2416 22.8905 18.2647C22.8807 18.2871 22.8668 18.3074 22.8495 18.3247C22.8318 18.3417 22.8111 18.3555 22.7886 18.3652C22.7648 18.3753 22.7393 18.3804 22.7136 18.3802C22.6875 18.3804 22.6617 18.3753 22.6377 18.3652C22.6149 18.3557 22.594 18.3419 22.5763 18.3247C22.559 18.3068 22.5453 18.2858 22.5359 18.2627C22.526 18.2396 22.5209 18.2147 22.5209 18.1895C22.5209 18.1644 22.526 18.1395 22.5359 18.1164C22.5455 18.0939 22.5594 18.0734 22.5769 18.0563C22.5944 18.0388 22.6153 18.025 22.6383 18.0158C22.6623 18.0057 22.6881 18.0006 22.7142 18.0008L22.7136 18.0028ZM5.0005 17.3268C5.0005 16.9931 5.21914 16.7189 5.57648 16.7189C5.91797 16.7189 6.1484 16.9813 6.1484 17.3268C6.1484 17.6724 5.91797 17.9348 5.57648 17.9348C5.21914 17.9348 5.0005 17.6606 5.0005 17.3268ZM6.53767 17.3268V16.3771H6.1248V16.6085C5.99385 16.4375 5.79523 16.3302 5.52511 16.3302C4.99298 16.3302 4.57537 16.7476 4.57537 17.3273C4.57537 17.907 4.99275 18.3244 5.52511 18.3244C5.79511 18.3244 5.99385 18.217 6.1248 18.0462V18.2767H6.53721V17.3268H6.53767ZM20.4879 17.3268C20.4879 16.9931 20.7065 16.7189 21.064 16.7189C21.4058 16.7189 21.6359 16.9813 21.6359 17.3268C21.6359 17.6724 21.4058 17.9348 21.064 17.9348C20.7066 17.9348 20.4879 17.6606 20.4879 17.3268ZM22.0255 17.3268V15.6147H21.6123V16.6085C21.4814 16.4375 21.2827 16.3302 21.0126 16.3302C20.4805 16.3302 20.0629 16.7476 20.0629 17.3273C20.0629 17.907 20.4802 18.3244 21.0126 18.3244C21.2827 18.3244 21.4814 18.217 21.6123 18.0462V18.2767H22.0255V17.3268ZM11.6619 16.6994C11.9279 16.6994 12.0988 16.8662 12.1424 17.1599H11.1573C11.2014 16.8857 11.3678 16.6994 11.662 16.6994H11.6619ZM11.6702 16.3292C11.1138 16.3292 10.7245 16.7341 10.7245 17.3263C10.7245 17.93 11.1294 18.3233 11.6979 18.3233C11.9838 18.3233 12.2457 18.252 12.4762 18.0573L12.2738 17.7513C12.1147 17.8785 11.912 17.9499 11.7215 17.9499C11.4554 17.9499 11.2132 17.8267 11.1536 17.4849H12.5634C12.5674 17.4335 12.5716 17.3817 12.5716 17.3262C12.5674 16.7342 12.2014 16.3291 11.67 16.3291L11.6702 16.3292ZM16.6547 17.3262C16.6547 16.9924 16.8733 16.7182 17.2307 16.7182C17.5721 16.7182 17.8026 16.9806 17.8026 17.3262C17.8026 17.6717 17.5721 17.9341 17.2307 17.9341C16.8733 17.9341 16.6546 17.6599 16.6546 17.3262H16.6547ZM18.1917 17.3262V16.3771H17.7791V16.6085C17.6477 16.4375 17.4495 16.3302 17.1794 16.3302C16.6473 16.3302 16.2297 16.7476 16.2297 17.3273C16.2297 17.907 16.647 18.3244 17.1794 18.3244C17.4495 18.3244 17.6477 18.217 17.7791 18.0462V18.2767H18.1918V17.3268L18.1917 17.3262ZM14.3231 17.3262C14.3231 17.9021 14.7241 18.3232 15.336 18.3232C15.622 18.3232 15.8125 18.2596 16.0185 18.0968L15.8203 17.7631C15.6653 17.8745 15.5025 17.9341 15.3228 17.9341C14.9933 17.93 14.7509 17.6917 14.7509 17.3262C14.7509 16.9606 14.9933 16.7224 15.3228 16.7182C15.502 16.7182 15.6648 16.7778 15.8203 16.8892L16.0185 16.5555C15.8122 16.3927 15.6216 16.3291 15.336 16.3291C14.7241 16.3291 14.3231 16.7501 14.3231 17.3262ZM19.6456 16.3291C19.4074 16.3291 19.2523 16.4405 19.1451 16.6073V16.3771H18.7359V18.2757H19.1492V17.2114C19.1492 16.8972 19.2842 16.7226 19.5541 16.7226C19.6425 16.7214 19.7302 16.7376 19.8123 16.7704L19.9396 16.3813C19.8482 16.3453 19.729 16.3294 19.6454 16.3294L19.6456 16.3291ZM8.57886 16.5281C8.38024 16.3971 8.10654 16.3294 7.80461 16.3294C7.32361 16.3294 7.01393 16.56 7.01393 16.9372C7.01393 17.2468 7.24448 17.4378 7.66903 17.4974L7.86407 17.5251C8.09046 17.5569 8.19735 17.6165 8.19735 17.7238C8.19735 17.8706 8.04696 17.9543 7.76458 17.9543C7.47862 17.9543 7.27224 17.8629 7.13308 17.7557L6.93908 18.0776C7.16547 18.2444 7.45143 18.324 7.76111 18.324C8.30944 18.324 8.62722 18.0658 8.62722 17.7043C8.62722 17.3706 8.37712 17.196 7.9639 17.1364L7.76933 17.1082C7.5906 17.0851 7.44739 17.0491 7.44739 16.9218C7.44739 16.783 7.58239 16.6995 7.80889 16.6995C8.05124 16.6995 8.28584 16.7909 8.40083 16.8623L8.57956 16.5285L8.57886 16.5281ZM13.9061 16.3298C13.6679 16.3298 13.5128 16.4412 13.406 16.608V16.3771H12.9968V18.2757H13.4097V17.2114C13.4097 16.8972 13.5447 16.7226 13.8146 16.7226C13.903 16.7214 13.9907 16.7376 14.0728 16.7704L14.2 16.3813C14.1087 16.3453 13.9895 16.3294 13.9059 16.3294L13.9061 16.3298ZM10.3829 16.3771H9.7078V15.8011H9.29042V16.3771H8.90532V16.7544H9.29042V17.6206C9.29042 18.0611 9.46139 18.3234 9.9498 18.3234C10.129 18.3234 10.3354 18.2679 10.4663 18.1766L10.347 17.8231C10.2238 17.8945 10.0888 17.9305 9.9815 17.9305C9.77512 17.9305 9.7078 17.8032 9.7078 17.6127V16.7548H10.3829V16.3771ZM4.21028 18.2761V17.0846C4.21028 16.6359 3.92432 16.3339 3.46333 16.3299C3.22098 16.3258 2.97099 16.4013 2.79596 16.6677C2.66501 16.4571 2.45864 16.3299 2.16851 16.3299C1.96572 16.3299 1.76756 16.3895 1.61243 16.6118V16.3771H1.19922V18.2757H1.61567V17.223C1.61567 16.8934 1.79845 16.7182 2.08071 16.7182C2.35487 16.7182 2.49357 16.897 2.49357 17.2188V18.2754H2.91095V17.2227C2.91095 16.8932 3.10148 16.718 3.37553 16.718C3.65744 16.718 3.79198 16.8967 3.79198 17.2186V18.2752L4.21028 18.2761Z" fill="white"/> <path d="M22.9151 11.9607V11.6831H22.8428L22.7591 11.8736L22.676 11.6831H22.6034V11.9607H22.6548V11.7516L22.733 11.932H22.7862L22.8644 11.7511V11.9607H22.9153H22.9151ZM22.4564 11.9607V11.7306H22.549V11.6838H22.3125V11.7306H22.405V11.9607H22.4559H22.4564Z" fill="#F79410"/> <path d="M14.6981 13.1519H8.44141V1.90771H14.6983L14.6981 13.1519Z" fill="#FF5F00"/> <path d="M8.83805 7.52948C8.83805 5.2486 9.90602 3.21677 11.569 1.90738C10.3102 0.914777 8.75324 0.376057 7.15014 0.378426C3.20113 0.378426 0 3.58001 0 7.52948C0 11.4789 3.20113 14.6805 7.15014 14.6805C8.75328 14.6829 10.3103 14.1442 11.5692 13.1516C9.90625 11.8424 8.83805 9.81048 8.83805 7.52948Z" fill="#EB001B"/> <path d="M23.14 7.52948C23.14 11.479 19.9389 14.6805 15.9899 14.6805C14.3866 14.6829 12.8294 14.1442 11.5703 13.1516C13.2338 11.8422 14.3018 9.81048 14.3018 7.52948C14.3018 5.24848 13.2338 3.21678 11.5703 1.90738C12.8294 0.914808 14.3865 0.376099 15.9898 0.378425C19.9388 0.378425 23.1399 3.58002 23.1399 7.52948" fill="#F79E1B"/> </g> <defs> <clipPath id="clip0_768_7724"> <rect width="23.1362" height="18" fill="white" transform="translate(0 0.378418)"/> </clipPath> </defs>
</svg>