<svg width="50" height="51" viewBox="0 0 50 51" fill="none" xmlns="http://www.w3.org/2000/svg">
<circle cx="24.9997" cy="25.5002" r="21.6667" fill="#FFF3D6"/>
<path d="M14.167 21.3335H35.0003V36.3335H24.5837L19.3753 40.0835V36.3335H14.167V21.3335Z" fill="#FEC533"/>
<path d="M22.6245 34.2607L18.2083 37.4404V34.6665V34.1665H17.7083H13V20.1665H32.8333V34.1665H22.9167H22.7554L22.6245 34.2607Z" stroke="#02020A"/>
<path d="M29.167 13.8335L31.667 18.1636" stroke="#02020A"/>
<path d="M36.667 13.8335L34.167 18.1636" stroke="#02020A"/>
<path d="M39.8291 18.8335L34.9995 20.1276" stroke="#02020A"/>
<path fill-rule="evenodd" clip-rule="evenodd" d="M49 25.5C49 38.7548 38.2548 49.5 25 49.5C19.7405 49.5 14.8761 47.8082 10.9214 44.939L10.2057 45.6547C14.3482 48.7006 19.464 50.5 25 50.5C38.8071 50.5 50 39.3071 50 25.5C50 19.964 48.2006 14.8482 45.1547 10.7057L44.439 11.4214C47.3082 15.3761 49 20.2405 49 25.5ZM4.89881 40.3668L5.61409 39.6515C2.71273 35.6838 1 30.7919 1 25.5C1 12.2452 11.7452 1.5 25 1.5C30.2919 1.5 35.1838 3.21273 39.1515 6.11409L39.8668 5.39882C35.7116 2.32051 30.5684 0.5 25 0.5C11.1929 0.5 0 11.6929 0 25.5C0 31.0684 1.82051 36.2116 4.89881 40.3668Z" fill="#FEC533"/>
<path d="M17.083 24.6665H22.9163H29.1663" stroke="#02020A"/>
<path d="M17.083 27.1665H24.9997" stroke="#02020A"/>
</svg>
