<svg width="32" height="32" viewBox="0 0 32 32" fill="none" xmlns="http://www.w3.org/2000/svg">
<path fill-rule="evenodd" clip-rule="evenodd" d="M31 16C31 24.2843 24.2843 31 16 31C12.9985 31 10.2029 30.1184 7.858 28.6001L7.13585 29.3222C9.67333 31.0139 12.7215 32 16 32C24.8366 32 32 24.8366 32 16C32 12.7215 31.0139 9.67333 29.3222 7.13585L28.6001 7.858C30.1184 10.2029 31 12.9985 31 16ZM3.58279 26.091L4.29389 25.3799C2.23293 22.8112 1 19.5496 1 16C1 7.71573 7.71573 1 16 1C19.5496 1 22.8112 2.23293 25.3799 4.29389L26.091 3.58279C23.338 1.34279 19.8258 0 16 0C7.16344 0 0 7.16344 0 16C0 19.8258 1.34279 23.338 3.58279 26.091Z" fill="#FEC533"/>
<path d="M10.1191 13.0852C10.1191 11.5388 11.3727 10.2852 12.9191 10.2852H24.0785V24.2694H12.9191C11.3727 24.2694 10.1191 23.0158 10.1191 21.4694V13.0852Z" fill="#FEC533"/>
<path d="M10.498 11.5997V7.73438H19.5171V11.5997" stroke="#212121" stroke-width="1.2" stroke-miterlimit="10" stroke-linecap="square"/>
<path d="M20.8043 15.462V11.597H9.20836C8.49682 11.597 7.91992 11.0201 7.91992 10.3086V19.9719C7.91992 21.0394 8.78511 21.9046 9.85258 21.9046H20.8043V18.0392" stroke="#212121" stroke-width="1.2" stroke-miterlimit="10" stroke-linecap="square"/>
<path d="M10.4968 9.02344H9.20836C8.49682 9.02344 7.91992 9.60034 7.91992 10.3119C7.91992 11.0234 8.49682 11.6003 9.20836 11.6003" stroke="#212121" stroke-width="1.2" stroke-miterlimit="10" stroke-linecap="square"/>
<path d="M22.0917 18.0417H19.1927C18.4812 18.0417 17.9043 17.4648 17.9043 16.7533C17.9043 16.0417 18.4812 15.4648 19.1927 15.4648H22.0917V18.0417Z" stroke="#212121" stroke-width="1.2" stroke-miterlimit="10" stroke-linecap="square"/>
</svg>
