<svg width="32" height="32" viewBox="0 0 32 32" fill="none" xmlns="http://www.w3.org/2000/svg">
<path fill-rule="evenodd" clip-rule="evenodd" d="M31 16C31 24.2843 24.2843 31 16 31C12.9985 31 10.2029 30.1184 7.858 28.6001L7.13585 29.3222C9.67333 31.0139 12.7215 32 16 32C24.8366 32 32 24.8366 32 16C32 12.7215 31.0139 9.67333 29.3222 7.13585L28.6001 7.858C30.1184 10.2029 31 12.9985 31 16ZM3.58279 26.091L4.29389 25.3799C2.23293 22.8112 1 19.5496 1 16C1 7.71573 7.71573 1 16 1C19.5496 1 22.8112 2.23293 25.3799 4.29389L26.091 3.58279C23.338 1.34279 19.8258 0 16 0C7.16344 0 0 7.16344 0 16C0 19.8258 1.34279 23.338 3.58279 26.091Z" fill="#FEC533"/>
<rect x="9.31445" y="12.125" width="15.3708" height="11.272" fill="#FEC533"/>
<path d="M7.31445 10.125V21.397H22.6853V10.125H14.9999H7.31445Z" stroke="#212121" stroke-width="1.2" stroke-miterlimit="10" stroke-linecap="square"/>
<path d="M9.87695 18.8359H16.0253" stroke="#212121" stroke-width="1.2" stroke-miterlimit="10" stroke-linecap="square"/>
<path d="M18.0742 18.8359H20.1237" stroke="#212121" stroke-width="1.2" stroke-miterlimit="10" stroke-linecap="square"/>
<path d="M13.2017 12.6875H9.87695V15.2703H13.2017V12.6875Z" stroke="#212121" stroke-width="1.2" stroke-miterlimit="10" stroke-linecap="square"/>
<path d="M16.0085 14.6068C16.2914 14.6068 16.5208 14.3774 16.5208 14.0944C16.5208 13.8114 16.2914 13.582 16.0085 13.582C15.7255 13.582 15.4961 13.8114 15.4961 14.0944C15.4961 14.3774 15.7255 14.6068 16.0085 14.6068Z" fill="#212121"/>
<path d="M17.9219 14.8513C18.0851 14.6332 18.1733 14.368 18.1733 14.0956C18.1733 13.8231 18.0851 13.558 17.9219 13.3398" stroke="#212121" stroke-width="1.2" stroke-miterlimit="10" stroke-linecap="square"/>
<path d="M19.5742 15.76C19.9304 15.2779 20.1225 14.6943 20.1225 14.0949C20.1225 13.4955 19.9304 12.9118 19.5742 12.4297" stroke="#212121" stroke-width="1.2" stroke-miterlimit="10" stroke-linecap="square"/>
</svg>
