<svg width="32" height="32" viewBox="0 0 32 32" fill="none" xmlns="http://www.w3.org/2000/svg">
<g clip-path="url(#clip0_945_69118)">
<path fill-rule="evenodd" clip-rule="evenodd" d="M31 16C31 24.2843 24.2843 31 16 31C12.9985 31 10.2029 30.1184 7.858 28.6001L7.13585 29.3222C9.67333 31.0139 12.7215 32 16 32C24.8366 32 32 24.8366 32 16C32 12.7215 31.0139 9.67333 29.3222 7.13585L28.6001 7.858C30.1184 10.2029 31 12.9985 31 16ZM3.58279 26.091L4.29389 25.3799C2.23293 22.8112 1 19.5496 1 16C1 7.71573 7.71573 1 16 1C19.5496 1 22.8112 2.23293 25.3799 4.29389L26.091 3.58279C23.338 1.34279 19.8258 0 16 0C7.16344 0 0 7.16344 0 16C0 19.8258 1.34279 23.338 3.58279 26.091Z" fill="#FEC533"/>
<path d="M24.5017 13.2799L22.5134 15.2683L20.7111 13.466L22.6994 11.4777C22.0819 11.2174 21.401 11.1466 20.7432 11.2743C20.0853 11.402 19.4803 11.7224 19.005 12.1948C18.5297 12.6671 18.2055 13.2701 18.0738 13.9272C17.942 14.5842 18.0085 15.2656 18.2649 15.8847L11.2695 22.0064L13.973 24.7099L20.0947 17.7145C20.7138 17.9709 21.3952 18.0374 22.0522 17.9056C22.7092 17.7739 23.3123 17.4497 23.7846 16.9744C24.257 16.4991 24.5774 15.8941 24.7051 15.2362C24.8328 14.5784 24.762 13.8975 24.5017 13.2799Z" fill="#FEC533" stroke="#FEC533" stroke-width="1.2" stroke-miterlimit="10" stroke-linecap="square"/>
<path d="M18.7788 16.5352L22.2272 19.248C22.6271 19.6094 22.8671 20.1149 22.8944 20.6532C22.9217 21.1916 22.734 21.7187 22.3726 22.1187C22.3496 22.144 22.3261 22.1693 22.3018 22.1946C21.9206 22.5758 21.4035 22.79 20.8644 22.79C20.3253 22.79 19.8083 22.5758 19.427 22.1946C19.4017 22.1693 19.3792 22.144 19.3562 22.1187L16.1133 18.6625" stroke="#02020A" stroke-width="1.2" stroke-miterlimit="10" stroke-linecap="square"/>
<path d="M12.8984 12.0403V11.0283L11.1275 9.25732L9.10352 11.2813L10.8745 13.0522H11.8864" stroke="#02020A" stroke-width="1.2" stroke-miterlimit="10"/>
<path d="M12.1035 12.1499L17.2528 17.2992" stroke="#02020A"/>
<path d="M22.5017 11.2799L20.5134 13.2683L18.7111 11.466L20.6994 9.47766C20.0819 9.21741 19.401 9.14663 18.7432 9.27432C18.0853 9.402 17.4803 9.72239 17.005 10.1948C16.5297 10.6671 16.2055 11.2701 16.0738 11.9272C15.942 12.5842 16.0085 13.2656 16.2649 13.8847L9.26953 20.0064L11.973 22.7099L18.0947 15.7145C18.7138 15.9709 19.3952 16.0374 20.0522 15.9056C20.7092 15.7739 21.3123 15.4497 21.7846 14.9744C22.257 14.4991 22.5774 13.8941 22.7051 13.2362C22.8328 12.5784 22.762 11.8975 22.5017 11.2799Z" stroke="#02020A" stroke-width="1.2" stroke-miterlimit="10" stroke-linecap="square"/>
</g>
<defs>
<clipPath id="clip0_945_69118">
<rect width="32" height="32" fill="white"/>
</clipPath>
</defs>
</svg>
