<svg width="20" height="18" viewBox="0 0 20 18" fill="none" xmlns="http://www.w3.org/2000/svg">
<path d="M16.75 7.28125V17.0156H3.25L3.25 7.28125" stroke="white" stroke-width="1.2" stroke-miterlimit="10" stroke-linecap="square"/>
<path d="M18.4375 4.35938H1.5625V7.17188H18.4375V4.35938Z" stroke="white" stroke-width="1.2" stroke-miterlimit="10" stroke-linecap="square"/>
<path d="M4.9375 2.67188C4.9375 2.22432 5.11529 1.7951 5.43176 1.47863C5.74822 1.16216 6.17745 0.984375 6.625 0.984375C9.12109 0.984375 10 4.35938 10 4.35938H6.625C6.17745 4.35937 5.74822 4.18159 5.43176 3.86512C5.11529 3.54865 4.9375 3.11943 4.9375 2.67188Z" stroke="white" stroke-width="1.2" stroke-miterlimit="10" stroke-linecap="square"/>
<path d="M15.0625 2.67188C15.0625 2.22432 14.8847 1.7951 14.5682 1.47863C14.2518 1.16216 13.8226 0.984375 13.375 0.984375C10.8789 0.984375 10 4.35938 10 4.35938H13.375C13.8226 4.35937 14.2518 4.18159 14.5682 3.86512C14.8847 3.54865 15.0625 3.11943 15.0625 2.67188V2.67188Z" stroke="white" stroke-width="1.2" stroke-miterlimit="10" stroke-linecap="square"/>
<path d="M11.6875 4.35938V17.0156H8.3125V4.35938" stroke="white" stroke-width="1.2" stroke-miterlimit="10" stroke-linecap="square"/>
</svg>
