<svg width="130" height="130" viewBox="0 0 130 130" fill="none" xmlns="http://www.w3.org/2000/svg">
<path fill-rule="evenodd" clip-rule="evenodd" d="M129 65C129 100.346 100.346 129 65 129C51.9593 129 39.8295 125.1 29.7137 118.402L28.9922 119.123C39.3002 125.995 51.6824 130 65 130C100.899 130 130 100.899 130 65C130 51.6824 125.995 39.3002 119.123 28.9922L118.402 29.7137C125.1 39.8295 129 51.9593 129 65ZM14.5572 105.997L15.2681 105.287C6.34597 94.2862 1 80.2674 1 65C1 29.6538 29.6538 1 65 1C80.2674 1 94.2862 6.34597 105.287 15.2681L105.997 14.5572C94.813 5.45594 80.5437 0 65 0C29.1015 0 0 29.1015 0 65C0 80.5437 5.45594 94.813 14.5572 105.997Z" fill="#FEC533"/>
<rect x="63.4922" y="41.1523" width="26.5226" height="16.9819" fill="#FEC533"/>
<path d="M42.9844 57.2129H69.507V74.023H52.7497L47.7587 78.6797V74.023H42.9844V57.2129Z" stroke="#02020A" stroke-width="1.2"/>
<path d="M72.2687 60.9625H77.2503L82.2413 65.6192V60.9625H87.0156V44.1523H60.493V52.5574" stroke="#02020A" stroke-width="1.2"/>
<circle cx="71.1426" cy="74.0547" r="6.14258" fill="#02020A"/>
<ellipse cx="71.1437" cy="87.5566" rx="11.5929" ry="6.14258" fill="#02020A"/>
<path d="M48.0977 62.6562H63.6475" stroke="#02020A" stroke-width="1.2"/>
<path d="M48.0977 66.5078H63.6475" stroke="#02020A" stroke-width="1.2"/>
<path d="M72.8439 53.9442H73.8839C73.8739 53.8442 73.8639 53.7442 73.8639 53.6542C73.8639 52.9442 74.1639 52.5842 74.5239 52.2342C75.0639 51.6942 75.5539 51.2442 75.5539 50.4942C75.5539 49.6742 74.8339 48.9042 73.6339 48.9042C72.8139 48.9042 72.2239 49.1842 71.6739 49.7542L72.3339 50.4842C72.6439 50.1142 73.0139 49.9142 73.5039 49.9142C74.0839 49.9142 74.3739 50.2642 74.3739 50.6142C74.3739 51.0342 74.0639 51.3342 73.6739 51.7142C73.2639 52.1342 72.8239 52.5842 72.8239 53.5742C72.8239 53.6942 72.8339 53.8142 72.8439 53.9442ZM73.3739 55.9442C73.7339 55.9442 74.0839 55.7242 74.0839 55.2542C74.0839 54.7742 73.7339 54.5542 73.3739 54.5542C73.0239 54.5542 72.6739 54.7742 72.6739 55.2542C72.6739 55.7242 73.0239 55.9442 73.3739 55.9442Z" fill="#02020A"/>
</svg>
