<svg width="130" height="130" viewBox="0 0 130 130" fill="none" xmlns="http://www.w3.org/2000/svg">
<path fill-rule="evenodd" clip-rule="evenodd" d="M129 65C129 100.346 100.346 129 65 129C51.9593 129 39.8295 125.1 29.7137 118.402L28.9922 119.123C39.3002 125.995 51.6824 130 65 130C100.899 130 130 100.899 130 65C130 51.6824 125.995 39.3002 119.123 28.9922L118.402 29.7137C125.1 39.8295 129 51.9593 129 65ZM14.5572 105.997L15.2681 105.287C6.34597 94.2862 1 80.2674 1 65C1 29.6538 29.6538 1 65 1C80.2674 1 94.2862 6.34597 105.287 15.2681L105.997 14.5572C94.813 5.45594 80.5437 0 65 0C29.1015 0 0 29.1015 0 65C0 80.5437 5.45594 94.813 14.5572 105.997Z" fill="#FEC533"/>
<path d="M62.0156 61.1563L86.2053 56.0146L90.5507 76.4581L66.361 81.5997L62.0156 61.1563Z" fill="#FEC533"/>
<path d="M62.9754 78.3926L60.0391 64.5781L84.7518 59.3253L88.7065 77.9303L89.0194 79.4025" stroke="#02020A" stroke-width="1.2"/>
<path d="M82.0058 59.9109L77.9203 40.6898L58.6992 44.7754L61.6901 58.8462" stroke="#02020A" stroke-width="1.2"/>
<rect x="65.1055" y="43.4121" width="6.55015" height="7.48589" transform="rotate(-12 65.1055 43.4121)" stroke="#02020A" stroke-width="1.2"/>
<rect x="69.1914" y="62.6328" width="6.55015" height="7.48589" transform="rotate(-12 69.1914 62.6328)" stroke="#02020A" stroke-width="1.2"/>
<rect x="49.9805" y="55.75" width="3.49583" height="28.5453" transform="rotate(-12 49.9805 55.75)" fill="#02020A"/>
<rect x="53.375" y="55.0234" width="4.03932" height="10.4875" transform="rotate(78 53.375 55.0234)" fill="#02020A"/>
<rect x="62.7422" y="87.5137" width="3.49583" height="30.1085" transform="rotate(-102 62.7422 87.5137)" fill="#02020A"/>
<path fill-rule="evenodd" clip-rule="evenodd" d="M61.1347 92.5523C64.0084 91.0881 65.151 87.5715 63.6868 84.6977C62.2225 81.824 58.7059 80.6814 55.8322 82.1457C52.9585 83.6099 51.8159 87.1265 53.2801 90.0002C54.7444 92.8739 58.261 94.0165 61.1347 92.5523ZM59.7545 89.8444C61.1073 89.1551 61.6452 87.4996 60.9559 86.1467C60.2666 84.7938 58.6111 84.2559 57.2582 84.9452C55.9053 85.6346 55.3674 87.2901 56.0567 88.643C56.7461 89.9958 58.4016 90.5337 59.7545 89.8444Z" fill="#02020A"/>
<path d="M63.1522 84.9701C64.4659 87.5486 63.4407 90.7039 60.8623 92.0177L61.4071 93.0869C64.576 91.4722 65.836 87.5943 64.2214 84.4254L63.1522 84.9701ZM56.1046 82.6803C58.6831 81.3665 61.8384 82.3917 63.1522 84.9701L64.2214 84.4254C62.6067 81.2564 58.7288 79.9964 55.5598 81.611L56.1046 82.6803ZM53.8147 89.7278C52.5009 87.1493 53.5262 83.994 56.1046 82.6803L55.5598 81.611C52.3909 83.2257 51.1309 87.1036 52.7455 90.2726L53.8147 89.7278ZM60.8623 92.0177C58.2838 93.3315 55.1285 92.3063 53.8147 89.7278L52.7455 90.2726C54.3602 93.4416 58.2381 94.7016 61.4071 93.0869L60.8623 92.0177ZM60.4213 86.4191C60.9602 87.4767 60.5397 88.7709 59.4821 89.3098L60.0269 90.379C61.675 89.5393 62.3303 87.5224 61.4905 85.8743L60.4213 86.4191ZM57.5306 85.4798C58.5882 84.9409 59.8824 85.3615 60.4213 86.4191L61.4905 85.8743C60.6508 84.2262 58.6339 83.5709 56.9858 84.4106L57.5306 85.4798ZM56.5913 88.3706C56.0524 87.3129 56.473 86.0187 57.5306 85.4798L56.9858 84.4106C55.3377 85.2504 54.6824 87.2672 55.5221 88.9154L56.5913 88.3706ZM59.4821 89.3098C58.4244 89.8487 57.1302 89.4282 56.5913 88.3706L55.5221 88.9154C56.3619 90.5635 58.3787 91.2188 60.0269 90.379L59.4821 89.3098Z" fill="#02020A"/>
</svg>
