<svg width="130" height="130" viewBox="0 0 130 130" fill="none" xmlns="http://www.w3.org/2000/svg">
<path d="M79 47.457H50.8672V85.8824H75.2407H79V70.3989V47.457Z" fill="#FEC533"/>
<path d="M77.1563 61.1123V45.2715H49.0234V83.6968H67.9347" stroke="#02020A"/>
<path d="M73.1563 44.8863V41.2715H45.0234V79.6968H48.8442" stroke="#02020A"/>
<path d="M54.4844 52.918H74.1488" stroke="#02020A" stroke-width="1.2"/>
<path d="M54.4844 57.2891H70.8714" stroke="#02020A" stroke-width="1.2"/>
<path d="M54.4844 61.6562H68.1403" stroke="#02020A" stroke-width="1.2"/>
<circle cx="59.0382" cy="74.839" r="4.46009" stroke="#02020A" stroke-width="1.2"/>
<path d="M83.4592 87.8602L80.6673 80.9294L81.3365 76.1953H76.6618L77.331 80.9294L74.5391 87.8602" stroke="#02020A"/>
<path d="M76.5995 76.3008L77.2224 80.7496L74.375 87.7789H83.3618L80.6924 80.7496L81.6712 76.3008H76.5995Z" fill="#02020A"/>
<path d="M70.6466 88.7168C70.7175 88.2247 71.1392 87.8594 71.6364 87.8594H86.3602C86.8574 87.8594 87.2791 88.2247 87.35 88.7168L87.7538 91.5199C87.8407 92.1227 87.3731 92.6625 86.7641 92.6625H71.2325C70.6235 92.6625 70.1559 92.1227 70.2428 91.5199L70.6466 88.7168Z" fill="#02020A" stroke="#02020A"/>
<circle cx="79.0011" cy="72.7648" r="3.43084" fill="#02020A" stroke="#02020A"/>
<path fill-rule="evenodd" clip-rule="evenodd" d="M129 65C129 100.346 100.346 129 65 129C51.9593 129 39.8295 125.1 29.7137 118.402L28.9922 119.123C39.3002 125.995 51.6824 130 65 130C100.899 130 130 100.899 130 65C130 51.6824 125.995 39.3002 119.123 28.9922L118.402 29.7137C125.1 39.8295 129 51.9593 129 65ZM14.5572 105.997L15.2681 105.287C6.34597 94.2862 1 80.2674 1 65C1 29.6538 29.6538 1 65 1C80.2674 1 94.2862 6.34597 105.287 15.2681L105.997 14.5572C94.813 5.45594 80.5437 0 65 0C29.1015 0 0 29.1015 0 65C0 80.5437 5.45594 94.813 14.5572 105.997Z" fill="#FEC533"/>
</svg>
