<svg width="34" height="34" viewBox="0 0 34 34" fill="none" xmlns="http://www.w3.org/2000/svg">
<path fill-rule="evenodd" clip-rule="evenodd" d="M0 17C0 7.61116 7.61116 0 17 0C26.3888 0 34 7.61116 34 17C34 26.3888 26.3888 34 17 34C7.61116 34 0 26.3888 0 17Z" fill="#FF0000"/>
<path fill-rule="evenodd" clip-rule="evenodd" d="M25.6875 12.5177C25.479 11.7166 24.8645 11.0857 24.0842 10.8716C22.6703 10.4825 16.9998 10.4825 16.9998 10.4825C16.9998 10.4825 11.3293 10.4825 9.9152 10.8716C9.13495 11.0857 8.52048 11.7166 8.31195 12.5177C7.93311 13.9696 7.93311 16.9991 7.93311 16.9991C7.93311 16.9991 7.93311 20.0286 8.31195 21.4806C8.52048 22.2817 9.13495 22.9126 9.9152 23.1268C11.3293 23.5158 16.9998 23.5158 16.9998 23.5158C16.9998 23.5158 22.6703 23.5158 24.0842 23.1268C24.8645 22.9126 25.479 22.2817 25.6875 21.4806C26.0664 20.0286 26.0664 16.9991 26.0664 16.9991C26.0664 16.9991 26.0664 13.9696 25.6875 12.5177Z" fill="white"/>
<path fill-rule="evenodd" clip-rule="evenodd" d="M15.2998 19.8346V14.1679L19.8331 17.0013L15.2998 19.8346Z" fill="#FF0000"/>
</svg>
